<?xml version="1.0" encoding="UTF-8" standalone="no"?><svg xmlns="http://www.w3.org/2000/svg" xmlns:xlink="http://www.w3.org/1999/xlink" contentScriptType="application/ecmascript" contentStyleType="text/css" height="487px" preserveAspectRatio="none" style="width:747px;height:487px;background:#FFFFFF;" version="1.1" viewBox="0 0 747 487" width="747px" zoomAndPan="magnify"><defs/><g><rect fill="#FEFECE" height="21.6094" rx="5" ry="5" style="stroke:#FEFECE;stroke-width:1.5;" width="121" x="10" y="199.5"/><text fill="#000000" font-family="sans-serif" font-size="14" lengthAdjust="spacing" textLength="89" x="15" y="216.0332">BedingungSet</text><text fill="#000000" font-family="sans-serif" font-size="14" lengthAdjust="spacing" textLength="0" x="126" y="216.0332"/><line style="stroke:#A80036;stroke-width:1.0;" x1="109" x2="109" y1="199.5" y2="221.1094"/><rect fill="none" height="21.6094" rx="5" ry="5" style="stroke:#A80036;stroke-width:1.5;" width="121" x="10" y="199.5"/><rect fill="#FEFECE" height="194.4844" rx="5" ry="5" style="stroke:#FEFECE;stroke-width:1.5;" width="221" x="168" y="113.5"/><text fill="#000000" font-family="sans-serif" font-size="14" lengthAdjust="spacing" textLength="34" x="173" y="130.0332">Code</text><text fill="#000000" font-family="sans-serif" font-size="14" lengthAdjust="spacing" textLength="50" x="332" y="130.0332">Code20</text><line style="stroke:#A80036;stroke-width:1.0;" x1="327" x2="327" y1="113.5" y2="135.1094"/><line style="stroke:#A80036;stroke-width:1.0;" x1="168" x2="389" y1="135.1094" y2="135.1094"/><text fill="#000000" font-family="sans-serif" font-size="14" lengthAdjust="spacing" textLength="87" x="173" y="151.6426">Beschreibung</text><text fill="#000000" font-family="sans-serif" font-size="14" lengthAdjust="spacing" textLength="51" x="332" y="151.6426">Text100</text><line style="stroke:#A80036;stroke-width:1.0;" x1="327" x2="327" y1="135.1094" y2="156.7188"/><line style="stroke:#A80036;stroke-width:1.0;" x1="168" x2="389" y1="156.7188" y2="156.7188"/><text fill="#000000" font-family="sans-serif" font-size="14" lengthAdjust="spacing" textLength="74" x="173" y="173.252">Referenzart</text><text fill="#000000" font-family="sans-serif" font-size="14" lengthAdjust="spacing" textLength="0" x="344" y="173.252"/><line style="stroke:#A80036;stroke-width:1.0;" x1="327" x2="327" y1="156.7188" y2="178.3281"/><line style="stroke:#A80036;stroke-width:1.0;" x1="168" x2="389" y1="178.3281" y2="178.3281"/><text fill="#000000" font-family="sans-serif" font-size="14" lengthAdjust="spacing" textLength="104" x="173" y="194.8613">Bedingungsart 1</text><text fill="#000000" font-family="sans-serif" font-size="14" lengthAdjust="spacing" textLength="0" x="344" y="194.8613"/><line style="stroke:#A80036;stroke-width:1.0;" x1="327" x2="327" y1="178.3281" y2="199.9375"/><line style="stroke:#A80036;stroke-width:1.0;" x1="168" x2="389" y1="199.9375" y2="199.9375"/><text fill="#000000" font-family="sans-serif" font-size="14" lengthAdjust="spacing" textLength="149" x="173" y="216.4707">Bedingung Instruktion 1</text><text fill="#000000" font-family="sans-serif" font-size="14" lengthAdjust="spacing" textLength="0" x="344" y="216.4707"/><line style="stroke:#A80036;stroke-width:1.0;" x1="327" x2="327" y1="199.9375" y2="221.5469"/><line style="stroke:#A80036;stroke-width:1.0;" x1="168" x2="389" y1="221.5469" y2="221.5469"/><text fill="#000000" font-family="sans-serif" font-size="14" lengthAdjust="spacing" textLength="118" x="173" y="238.0801">Bedingungscode 1</text><text fill="#000000" font-family="sans-serif" font-size="14" lengthAdjust="spacing" textLength="43" x="332" y="238.0801">Text80</text><line style="stroke:#A80036;stroke-width:1.0;" x1="327" x2="327" y1="221.5469" y2="243.1563"/><line style="stroke:#A80036;stroke-width:1.0;" x1="168" x2="389" y1="243.1563" y2="243.1563"/><text fill="#000000" font-family="sans-serif" font-size="14" lengthAdjust="spacing" textLength="104" x="173" y="259.6895">Bedingungsart 2</text><text fill="#000000" font-family="sans-serif" font-size="14" lengthAdjust="spacing" textLength="0" x="344" y="259.6895"/><line style="stroke:#A80036;stroke-width:1.0;" x1="327" x2="327" y1="243.1563" y2="264.7656"/><line style="stroke:#A80036;stroke-width:1.0;" x1="168" x2="389" y1="264.7656" y2="264.7656"/><text fill="#000000" font-family="sans-serif" font-size="14" lengthAdjust="spacing" textLength="90" x="173" y="281.2988">Tabellenname</text><text fill="#000000" font-family="sans-serif" font-size="14" lengthAdjust="spacing" textLength="51" x="332" y="281.2988">Text250</text><line style="stroke:#A80036;stroke-width:1.0;" x1="327" x2="327" y1="264.7656" y2="286.375"/><line style="stroke:#A80036;stroke-width:1.0;" x1="168" x2="389" y1="286.375" y2="286.375"/><text fill="#000000" font-family="sans-serif" font-size="14" lengthAdjust="spacing" textLength="147" x="173" y="302.9082">Leere Bedingung gültig</text><text fill="#000000" font-family="sans-serif" font-size="14" lengthAdjust="spacing" textLength="52" x="332" y="302.9082">Boolean</text><line style="stroke:#A80036;stroke-width:1.0;" x1="327" x2="327" y1="286.375" y2="307.9844"/><rect fill="none" height="194.4844" rx="5" ry="5" style="stroke:#A80036;stroke-width:1.5;" width="221" x="168" y="113.5"/><rect fill="#FEFECE" height="21.6094" rx="5" ry="5" style="stroke:#FEFECE;stroke-width:1.5;" width="74" x="426" y="47.5"/><text fill="#000000" font-family="sans-serif" font-size="14" lengthAdjust="spacing" textLength="42" x="431" y="64.0332">Option</text><text fill="#000000" font-family="sans-serif" font-size="14" lengthAdjust="spacing" textLength="0" x="495" y="64.0332"/><line style="stroke:#A80036;stroke-width:1.0;" x1="478" x2="478" y1="47.5" y2="69.1094"/><rect fill="none" height="21.6094" rx="5" ry="5" style="stroke:#A80036;stroke-width:1.5;" width="74" x="426" y="47.5"/><rect fill="#FEFECE" height="43.2188" rx="5" ry="5" style="stroke:#FEFECE;stroke-width:1.5;" width="136" x="568" y="10"/><text fill="#000000" font-family="sans-serif" font-size="14" lengthAdjust="spacing" textLength="126" x="573" y="26.5332">Stückliste-Fertigung</text><line style="stroke:#A80036;stroke-width:1.0;" x1="568" x2="704" y1="31.6094" y2="31.6094"/><text fill="#000000" font-family="sans-serif" font-size="14" lengthAdjust="spacing" textLength="71" x="573" y="48.1426">Arbeitsplan</text><rect fill="none" height="43.2188" rx="5" ry="5" style="stroke:#A80036;stroke-width:1.5;" width="136" x="568" y="10"/><rect fill="#FEFECE" height="21.6094" rx="5" ry="5" style="stroke:#FEFECE;stroke-width:1.5;" width="74" x="426" y="141.5"/><text fill="#000000" font-family="sans-serif" font-size="14" lengthAdjust="spacing" textLength="42" x="431" y="158.0332">Option</text><text fill="#000000" font-family="sans-serif" font-size="14" lengthAdjust="spacing" textLength="0" x="495" y="158.0332"/><line style="stroke:#A80036;stroke-width:1.0;" x1="478" x2="478" y1="141.5" y2="163.1094"/><rect fill="none" height="21.6094" rx="5" ry="5" style="stroke:#A80036;stroke-width:1.5;" width="74" x="426" y="141.5"/><rect fill="#FEFECE" height="108.0469" rx="5" ry="5" style="stroke:#FEFECE;stroke-width:1.5;" width="198" x="537" y="71.5"/><text fill="#000000" font-family="sans-serif" font-size="14" lengthAdjust="spacing" textLength="85" x="542" y="88.0332">Sachmerkmal</text><line style="stroke:#A80036;stroke-width:1.0;" x1="537" x2="735" y1="93.1094" y2="93.1094"/><text fill="#000000" font-family="sans-serif" font-size="14" lengthAdjust="spacing" textLength="78" x="542" y="109.6426">Tabellenfeld</text><line style="stroke:#A80036;stroke-width:1.0;" x1="537" x2="735" y1="114.7188" y2="114.7188"/><text fill="#000000" font-family="sans-serif" font-size="14" lengthAdjust="spacing" textLength="153" x="542" y="131.252">NV-Numerische Variable</text><line style="stroke:#A80036;stroke-width:1.0;" x1="537" x2="735" y1="136.3281" y2="136.3281"/><text fill="#000000" font-family="sans-serif" font-size="14" lengthAdjust="spacing" textLength="188" x="542" y="152.8613">AV-Alphanumerische Variable</text><line style="stroke:#A80036;stroke-width:1.0;" x1="537" x2="735" y1="157.9375" y2="157.9375"/><text fill="#000000" font-family="sans-serif" font-size="14" lengthAdjust="spacing" textLength="56" x="542" y="174.4707">Artikelnr.</text><rect fill="none" height="108.0469" rx="5" ry="5" style="stroke:#A80036;stroke-width:1.5;" width="198" x="537" y="71.5"/><rect fill="#FEFECE" height="21.6094" rx="5" ry="5" style="stroke:#FEFECE;stroke-width:1.5;" width="74" x="426" y="235.5"/><text fill="#000000" font-family="sans-serif" font-size="14" lengthAdjust="spacing" textLength="42" x="431" y="252.0332">Option</text><text fill="#000000" font-family="sans-serif" font-size="14" lengthAdjust="spacing" textLength="0" x="495" y="252.0332"/><line style="stroke:#A80036;stroke-width:1.0;" x1="478" x2="478" y1="235.5" y2="257.1094"/><rect fill="none" height="21.6094" rx="5" ry="5" style="stroke:#A80036;stroke-width:1.5;" width="74" x="426" y="235.5"/><rect fill="#FEFECE" height="151.2656" rx="5" ry="5" style="stroke:#FEFECE;stroke-width:1.5;" width="147" x="562.5" y="198"/><text fill="#000000" font-family="sans-serif" font-size="14" lengthAdjust="spacing" textLength="49" x="567.5" y="214.5332">= gleich</text><line style="stroke:#A80036;stroke-width:1.0;" x1="562.5" x2="709.5" y1="219.6094" y2="219.6094"/><text fill="#000000" font-family="sans-serif" font-size="14" lengthAdjust="spacing" textLength="55" x="567.5" y="236.1426">&gt; größer</text><line style="stroke:#A80036;stroke-width:1.0;" x1="562.5" x2="709.5" y1="241.2188" y2="241.2188"/><text fill="#000000" font-family="sans-serif" font-size="14" lengthAdjust="spacing" textLength="137" x="567.5" y="257.752">&gt;= größer oder gleich</text><line style="stroke:#A80036;stroke-width:1.0;" x1="562.5" x2="709.5" y1="262.8281" y2="262.8281"/><text fill="#000000" font-family="sans-serif" font-size="14" lengthAdjust="spacing" textLength="54" x="567.5" y="279.3613">&lt; kleiner</text><line style="stroke:#A80036;stroke-width:1.0;" x1="562.5" x2="709.5" y1="284.4375" y2="284.4375"/><text fill="#000000" font-family="sans-serif" font-size="14" lengthAdjust="spacing" textLength="136" x="567.5" y="300.9707">&lt;= kleiner oder gleich</text><line style="stroke:#A80036;stroke-width:1.0;" x1="562.5" x2="709.5" y1="306.0469" y2="306.0469"/><text fill="#000000" font-family="sans-serif" font-size="14" lengthAdjust="spacing" textLength="73" x="567.5" y="322.5801">&lt;&gt; ungleich</text><line style="stroke:#A80036;stroke-width:1.0;" x1="562.5" x2="709.5" y1="327.6563" y2="327.6563"/><text fill="#000000" font-family="sans-serif" font-size="14" lengthAdjust="spacing" textLength="65" x="567.5" y="344.1895">Wertefilter</text><rect fill="none" height="151.2656" rx="5" ry="5" style="stroke:#A80036;stroke-width:1.5;" width="147" x="562.5" y="198"/><rect fill="#FEFECE" height="21.6094" rx="5" ry="5" style="stroke:#FEFECE;stroke-width:1.5;" width="74" x="426" y="383.5"/><text fill="#000000" font-family="sans-serif" font-size="14" lengthAdjust="spacing" textLength="42" x="431" y="400.0332">Option</text><text fill="#000000" font-family="sans-serif" font-size="14" lengthAdjust="spacing" textLength="0" x="495" y="400.0332"/><line style="stroke:#A80036;stroke-width:1.0;" x1="478" x2="478" y1="383.5" y2="405.1094"/><rect fill="none" height="21.6094" rx="5" ry="5" style="stroke:#A80036;stroke-width:1.5;" width="74" x="426" y="383.5"/><rect fill="#FEFECE" height="108.0469" rx="5" ry="5" style="stroke:#FEFECE;stroke-width:1.5;" width="198" x="537" y="367.5"/><text fill="#000000" font-family="sans-serif" font-size="14" lengthAdjust="spacing" textLength="85" x="542" y="384.0332">Sachmerkmal</text><line style="stroke:#A80036;stroke-width:1.0;" x1="537" x2="735" y1="389.1094" y2="389.1094"/><text fill="#000000" font-family="sans-serif" font-size="14" lengthAdjust="spacing" textLength="78" x="542" y="405.6426">Tabellenfeld</text><line style="stroke:#A80036;stroke-width:1.0;" x1="537" x2="735" y1="410.7188" y2="410.7188"/><text fill="#000000" font-family="sans-serif" font-size="14" lengthAdjust="spacing" textLength="153" x="542" y="427.252">NV-Numerische Variable</text><line style="stroke:#A80036;stroke-width:1.0;" x1="537" x2="735" y1="432.3281" y2="432.3281"/><text fill="#000000" font-family="sans-serif" font-size="14" lengthAdjust="spacing" textLength="188" x="542" y="448.8613">AV-Alphanumerische Variable</text><line style="stroke:#A80036;stroke-width:1.0;" x1="537" x2="735" y1="453.9375" y2="453.9375"/><text fill="#000000" font-family="sans-serif" font-size="14" lengthAdjust="spacing" textLength="56" x="542" y="470.4707">Artikelnr.</text><rect fill="none" height="108.0469" rx="5" ry="5" style="stroke:#A80036;stroke-width:1.5;" width="198" x="537" y="367.5"/><path d="M488,58.5 L501,58.5 C520.5538,58.5 541.3993,55.7229 560.6968,51.9501 " fill="none" style="stroke:#A80036;stroke-width:1.0;stroke-dasharray:3.0,3.0;"/><path d="M561.3172,54.9886 L562.9758,51.4848 L560.0765,48.9115 L568.2932,50.3991 L561.3172,54.9886 " fill="#A80036" style="stroke:#A80036;stroke-width:1.0;"/><ellipse cx="488" cy="58.5" fill="#A80036" rx="3" ry="3" style="stroke:#A80036;stroke-width:1.0;stroke-dasharray:3.0,3.0;"/><path d="M377,166.5 L390,166.5 C411.3391,166.5 440.6826,107.6433 454.5833,76.8284 " fill="none" style="stroke:#A80036;stroke-width:1.0;stroke-dasharray:3.0,3.0;"/><path d="M457.4542,78.1032 L455.5394,74.6752 L451.7124,75.5535 L457.7703,69.6511 L457.4542,78.1032 " fill="#A80036" style="stroke:#A80036;stroke-width:1.0;"/><ellipse cx="377" cy="166.5" fill="#A80036" rx="3" ry="3" style="stroke:#A80036;stroke-width:1.0;stroke-dasharray:3.0,3.0;"/><path d="M488,152.5 L501,152.5 C510.3024,152.5 519.8972,151.8715 529.4785,150.8062 " fill="none" style="stroke:#A80036;stroke-width:1.0;stroke-dasharray:3.0,3.0;"/><path d="M529.8563,153.8764 L531.7811,150.523 L529.1008,147.7361 L537.1539,149.862 L529.8563,153.8764 " fill="#A80036" style="stroke:#A80036;stroke-width:1.0;"/><ellipse cx="488" cy="152.5" fill="#A80036" rx="3" ry="3" style="stroke:#A80036;stroke-width:1.0;stroke-dasharray:3.0,3.0;"/><path d="M377,188.5 L390,188.5 C409.4438,188.5 429.0477,177.9843 442.959,168.3196 " fill="none" style="stroke:#A80036;stroke-width:1.0;stroke-dasharray:3.0,3.0;"/><path d="M444.8095,170.8581 L444.8629,166.9317 L441.1085,165.7811 L449.3053,163.6933 L444.8095,170.8581 " fill="#A80036" style="stroke:#A80036;stroke-width:1.0;"/><ellipse cx="377" cy="188.5" fill="#A80036" rx="3" ry="3" style="stroke:#A80036;stroke-width:1.0;stroke-dasharray:3.0,3.0;"/><path d="M488,246.5 L501,246.5 C518.7136,246.5 537.4872,248.779 555.2098,252.0127 " fill="none" style="stroke:#A80036;stroke-width:1.0;stroke-dasharray:3.0,3.0;"/><path d="M554.6336,255.0227 L557.4673,252.4448 L555.786,249.0027 L562.7347,253.4532 L554.6336,255.0227 " fill="#A80036" style="stroke:#A80036;stroke-width:1.0;"/><ellipse cx="488" cy="246.5" fill="#A80036" rx="3" ry="3" style="stroke:#A80036;stroke-width:1.0;stroke-dasharray:3.0,3.0;"/><path d="M377,209.5 L390,209.5 C409.7947,209.5 429.6338,220.578 443.5421,230.6107 " fill="none" style="stroke:#A80036;stroke-width:1.0;stroke-dasharray:3.0,3.0;"/><path d="M441.6269,233.1408 L445.4396,232.0471 L445.4573,228.0807 L449.8672,235.3988 L441.6269,233.1408 " fill="#A80036" style="stroke:#A80036;stroke-width:1.0;"/><ellipse cx="377" cy="209.5" fill="#A80036" rx="3" ry="3" style="stroke:#A80036;stroke-width:1.0;stroke-dasharray:3.0,3.0;"/><path d="M488,394.5 L501,394.5 C510.3024,394.5 519.8972,395.1285 529.4785,396.1938 " fill="none" style="stroke:#A80036;stroke-width:1.0;stroke-dasharray:3.0,3.0;"/><path d="M529.1008,399.2639 L531.7811,396.477 L529.8563,393.1236 L537.1539,397.138 L529.1008,399.2639 " fill="#A80036" style="stroke:#A80036;stroke-width:1.0;"/><ellipse cx="488" cy="394.5" fill="#A80036" rx="3" ry="3" style="stroke:#A80036;stroke-width:1.0;stroke-dasharray:3.0,3.0;"/><path d="M377,253.5 L390,253.5 C444.2512,253.5 457.9405,337.0766 461.3679,375.539 " fill="none" style="stroke:#A80036;stroke-width:1.0;stroke-dasharray:3.0,3.0;"/><path d="M458.2091,375.7849 L461.5523,377.9081 L464.5267,375.2932 L461.9826,383.436 L458.2091,375.7849 " fill="#A80036" style="stroke:#A80036;stroke-width:1.0;"/><ellipse cx="377" cy="253.5" fill="#A80036" rx="3" ry="3" style="stroke:#A80036;stroke-width:1.0;stroke-dasharray:3.0,3.0;"/><path d="M119,210.5 L132,210.5 C141.3003,210.5 150.9337,210.5 160.6139,210.5 " fill="none" style="stroke:#A80036;stroke-width:1.0;stroke-dasharray:3.0,3.0;"/><path d="M160.6139,213.6071 L162.9443,210.5 L160.6139,207.3929 L168.3817,210.5 L160.6139,213.6071 " fill="#A80036" style="stroke:#A80036;stroke-width:1.0;"/><ellipse cx="119" cy="210.5" fill="#A80036" rx="3" ry="3" style="stroke:#A80036;stroke-width:1.0;stroke-dasharray:3.0,3.0;"/><!--MD5=[a066e137598d865d0382d33ebb3eee74]
@startjson
{
  "BedingungSet": {
    "Code": "Code20",
    "Beschreibung": "Text100",
    "Referenzart": {
      "Option": [
        "Stückliste-Fertigung",
        "Arbeitsplan"
      ]
    },
    "Bedingungsart 1": {
      "Option": [
        "Sachmerkmal",
        "Tabellenfeld",
        "NV-Numerische Variable",
        "AV-Alphanumerische Variable",
        "Artikelnr."
      ]
    },
    "Bedingung Instruktion 1": {
      "Option": [
        "= gleich",
        "> größer",
        ">= größer oder gleich",
        "< kleiner",
        "<= kleiner oder gleich",
        "<> ungleich",
        "Wertefilter"
      ]
    },
    "Bedingungscode 1": "Text80",
    "Bedingungsart 2": {
      "Option": [
        "Sachmerkmal",
        "Tabellenfeld",
        "NV-Numerische Variable",
        "AV-Alphanumerische Variable",
        "Artikelnr."
      ]
    },
    "Tabellenname": "Text250",
    "Leere Bedingung gültig": "Boolean"
  }
}
@endjson

PlantUML version 1.2021.7(Sun May 23 14:40:07 CEST 2021)
(GPL source distribution)
Java Runtime: OpenJDK Runtime Environment
JVM: Dynamic Code Evolution 64-Bit Server VM
Default Encoding: Cp1252
Language: de
Country: DE
--></g></svg>