<?xml version="1.0" encoding="UTF-8" standalone="no"?><svg xmlns="http://www.w3.org/2000/svg" xmlns:xlink="http://www.w3.org/1999/xlink" contentScriptType="application/ecmascript" contentStyleType="text/css" height="314px" preserveAspectRatio="none" style="width:893px;height:314px;background:#FFFFFF;" version="1.1" viewBox="0 0 893 314" width="893px" zoomAndPan="magnify"><defs/><g><rect fill="#FEFECE" height="21.6094" rx="5" ry="5" style="stroke:#FEFECE;stroke-width:1.5;" width="175" x="10" y="135.5"/><text fill="#000000" font-family="sans-serif" font-size="14" lengthAdjust="spacing" textLength="143" x="15" y="152.0332">Entscheidungstabellen</text><text fill="#000000" font-family="sans-serif" font-size="14" lengthAdjust="spacing" textLength="0" x="180" y="152.0332"/><line style="stroke:#A80036;stroke-width:1.0;" x1="163" x2="163" y1="135.5" y2="157.1094"/><rect fill="none" height="21.6094" rx="5" ry="5" style="stroke:#A80036;stroke-width:1.5;" width="175" x="10" y="135.5"/><rect fill="#FEFECE" height="216.0938" rx="5" ry="5" style="stroke:#FEFECE;stroke-width:1.5;" width="338" x="222" y="38.5"/><text fill="#000000" font-family="sans-serif" font-size="14" lengthAdjust="spacing" textLength="34" x="227" y="55.0332">Code</text><text fill="#000000" font-family="sans-serif" font-size="14" lengthAdjust="spacing" textLength="50" x="503" y="55.0332">Code20</text><line style="stroke:#A80036;stroke-width:1.0;" x1="498" x2="498" y1="38.5" y2="60.1094"/><line style="stroke:#A80036;stroke-width:1.0;" x1="222" x2="560" y1="60.1094" y2="60.1094"/><text fill="#000000" font-family="sans-serif" font-size="14" lengthAdjust="spacing" textLength="87" x="227" y="76.6426">Beschreibung</text><text fill="#000000" font-family="sans-serif" font-size="14" lengthAdjust="spacing" textLength="51" x="503" y="76.6426">Text100</text><line style="stroke:#A80036;stroke-width:1.0;" x1="498" x2="498" y1="60.1094" y2="81.7188"/><line style="stroke:#A80036;stroke-width:1.0;" x1="222" x2="560" y1="81.7188" y2="81.7188"/><text fill="#000000" font-family="sans-serif" font-size="14" lengthAdjust="spacing" textLength="74" x="227" y="98.252">Referenzart</text><text fill="#000000" font-family="sans-serif" font-size="14" lengthAdjust="spacing" textLength="0" x="515" y="98.252"/><line style="stroke:#A80036;stroke-width:1.0;" x1="498" x2="498" y1="81.7188" y2="103.3281"/><line style="stroke:#A80036;stroke-width:1.0;" x1="222" x2="560" y1="103.3281" y2="103.3281"/><text fill="#000000" font-family="sans-serif" font-size="14" lengthAdjust="spacing" textLength="40" x="227" y="119.8613">Status</text><text fill="#000000" font-family="sans-serif" font-size="14" lengthAdjust="spacing" textLength="0" x="515" y="119.8613"/><line style="stroke:#A80036;stroke-width:1.0;" x1="498" x2="498" y1="103.3281" y2="124.9375"/><line style="stroke:#A80036;stroke-width:1.0;" x1="222" x2="560" y1="124.9375" y2="124.9375"/><text fill="#000000" font-family="sans-serif" font-size="14" lengthAdjust="spacing" textLength="132" x="227" y="141.4707">Bedingungsset Code</text><text fill="#000000" font-family="sans-serif" font-size="14" lengthAdjust="spacing" textLength="50" x="503" y="141.4707">Code20</text><line style="stroke:#A80036;stroke-width:1.0;" x1="498" x2="498" y1="124.9375" y2="146.5469"/><line style="stroke:#A80036;stroke-width:1.0;" x1="222" x2="560" y1="146.5469" y2="146.5469"/><text fill="#000000" font-family="sans-serif" font-size="14" lengthAdjust="spacing" textLength="103" x="227" y="163.0801">Aktionsset Code</text><text fill="#000000" font-family="sans-serif" font-size="14" lengthAdjust="spacing" textLength="50" x="503" y="163.0801">Code20</text><line style="stroke:#A80036;stroke-width:1.0;" x1="498" x2="498" y1="146.5469" y2="168.1563"/><line style="stroke:#A80036;stroke-width:1.0;" x1="222" x2="560" y1="168.1563" y2="168.1563"/><text fill="#000000" font-family="sans-serif" font-size="14" lengthAdjust="spacing" textLength="18" x="227" y="184.6895">Art</text><text fill="#000000" font-family="sans-serif" font-size="14" lengthAdjust="spacing" textLength="0" x="515" y="184.6895"/><line style="stroke:#A80036;stroke-width:1.0;" x1="498" x2="498" y1="168.1563" y2="189.7656"/><line style="stroke:#A80036;stroke-width:1.0;" x1="222" x2="560" y1="189.7656" y2="189.7656"/><text fill="#000000" font-family="sans-serif" font-size="14" lengthAdjust="spacing" textLength="266" x="227" y="206.2988">Nicht plausible Ausprägungen ausblenden</text><text fill="#000000" font-family="sans-serif" font-size="14" lengthAdjust="spacing" textLength="52" x="503" y="206.2988">Boolean</text><line style="stroke:#A80036;stroke-width:1.0;" x1="498" x2="498" y1="189.7656" y2="211.375"/><line style="stroke:#A80036;stroke-width:1.0;" x1="222" x2="560" y1="211.375" y2="211.375"/><text fill="#000000" font-family="sans-serif" font-size="14" lengthAdjust="spacing" textLength="79" x="227" y="227.9082">Verwendung</text><text fill="#000000" font-family="sans-serif" font-size="14" lengthAdjust="spacing" textLength="0" x="515" y="227.9082"/><line style="stroke:#A80036;stroke-width:1.0;" x1="498" x2="498" y1="211.375" y2="232.9844"/><line style="stroke:#A80036;stroke-width:1.0;" x1="222" x2="560" y1="232.9844" y2="232.9844"/><text fill="#000000" font-family="sans-serif" font-size="14" lengthAdjust="spacing" textLength="90" x="227" y="249.5176">Tabellenname</text><text fill="#000000" font-family="sans-serif" font-size="14" lengthAdjust="spacing" textLength="51" x="503" y="249.5176">Text250</text><line style="stroke:#A80036;stroke-width:1.0;" x1="498" x2="498" y1="232.9844" y2="254.5938"/><rect fill="none" height="216.0938" rx="5" ry="5" style="stroke:#A80036;stroke-width:1.5;" width="338" x="222" y="38.5"/><rect fill="#FEFECE" height="21.6094" rx="5" ry="5" style="stroke:#FEFECE;stroke-width:1.5;" width="74" x="597" y="30.5"/><text fill="#000000" font-family="sans-serif" font-size="14" lengthAdjust="spacing" textLength="42" x="602" y="47.0332">Option</text><text fill="#000000" font-family="sans-serif" font-size="14" lengthAdjust="spacing" textLength="0" x="666" y="47.0332"/><line style="stroke:#A80036;stroke-width:1.0;" x1="649" x2="649" y1="30.5" y2="52.1094"/><rect fill="none" height="21.6094" rx="5" ry="5" style="stroke:#A80036;stroke-width:1.5;" width="74" x="597" y="30.5"/><rect fill="#FEFECE" height="43.2188" rx="5" ry="5" style="stroke:#FEFECE;stroke-width:1.5;" width="136" x="726.5" y="10"/><text fill="#000000" font-family="sans-serif" font-size="14" lengthAdjust="spacing" textLength="126" x="731.5" y="26.5332">Stückliste-Fertigung</text><line style="stroke:#A80036;stroke-width:1.0;" x1="726.5" x2="862.5" y1="31.6094" y2="31.6094"/><text fill="#000000" font-family="sans-serif" font-size="14" lengthAdjust="spacing" textLength="71" x="731.5" y="48.1426">Arbeitsplan</text><rect fill="none" height="43.2188" rx="5" ry="5" style="stroke:#A80036;stroke-width:1.5;" width="136" x="726.5" y="10"/><rect fill="#FEFECE" height="21.6094" rx="5" ry="5" style="stroke:#FEFECE;stroke-width:1.5;" width="74" x="597" y="88.5"/><text fill="#000000" font-family="sans-serif" font-size="14" lengthAdjust="spacing" textLength="42" x="602" y="105.0332">Option</text><text fill="#000000" font-family="sans-serif" font-size="14" lengthAdjust="spacing" textLength="0" x="666" y="105.0332"/><line style="stroke:#A80036;stroke-width:1.0;" x1="649" x2="649" y1="88.5" y2="110.1094"/><rect fill="none" height="21.6094" rx="5" ry="5" style="stroke:#A80036;stroke-width:1.5;" width="74" x="597" y="88.5"/><rect fill="#FEFECE" height="43.2188" rx="5" ry="5" style="stroke:#FEFECE;stroke-width:1.5;" width="99" x="745" y="71"/><text fill="#000000" font-family="sans-serif" font-size="14" lengthAdjust="spacing" textLength="89" x="750" y="87.5332">In Entwicklung</text><line style="stroke:#A80036;stroke-width:1.0;" x1="745" x2="844" y1="92.6094" y2="92.6094"/><text fill="#000000" font-family="sans-serif" font-size="14" lengthAdjust="spacing" textLength="61" x="750" y="109.1426">Zertifiziert</text><rect fill="none" height="43.2188" rx="5" ry="5" style="stroke:#A80036;stroke-width:1.5;" width="99" x="745" y="71"/><rect fill="#FEFECE" height="21.6094" rx="5" ry="5" style="stroke:#FEFECE;stroke-width:1.5;" width="74" x="597" y="168.5"/><text fill="#000000" font-family="sans-serif" font-size="14" lengthAdjust="spacing" textLength="42" x="602" y="185.0332">Option</text><text fill="#000000" font-family="sans-serif" font-size="14" lengthAdjust="spacing" textLength="0" x="666" y="185.0332"/><line style="stroke:#A80036;stroke-width:1.0;" x1="649" x2="649" y1="168.5" y2="190.1094"/><rect fill="none" height="21.6094" rx="5" ry="5" style="stroke:#A80036;stroke-width:1.5;" width="74" x="597" y="168.5"/><rect fill="#FEFECE" height="108.0469" rx="5" ry="5" style="stroke:#FEFECE;stroke-width:1.5;" width="173" x="708" y="132.5"/><text fill="#000000" font-family="sans-serif" font-size="14" lengthAdjust="spacing" textLength="58" x="713" y="149.0332">Standard</text><line style="stroke:#A80036;stroke-width:1.0;" x1="708" x2="881" y1="154.1094" y2="154.1094"/><text fill="#000000" font-family="sans-serif" font-size="14" lengthAdjust="spacing" textLength="50" x="713" y="170.6426">Prüfung</text><line style="stroke:#A80036;stroke-width:1.0;" x1="708" x2="881" y1="175.7188" y2="175.7188"/><text fill="#000000" font-family="sans-serif" font-size="14" lengthAdjust="spacing" textLength="39" x="713" y="192.252">Select</text><line style="stroke:#A80036;stroke-width:1.0;" x1="708" x2="881" y1="197.3281" y2="197.3281"/><text fill="#000000" font-family="sans-serif" font-size="14" lengthAdjust="spacing" textLength="163" x="713" y="213.8613">Sachmerkmal ausblenden</text><line style="stroke:#A80036;stroke-width:1.0;" x1="708" x2="881" y1="218.9375" y2="218.9375"/><text fill="#000000" font-family="sans-serif" font-size="14" lengthAdjust="spacing" textLength="85" x="713" y="235.4707">Preisgruppen</text><rect fill="none" height="108.0469" rx="5" ry="5" style="stroke:#A80036;stroke-width:1.5;" width="173" x="708" y="132.5"/><rect fill="#FEFECE" height="21.6094" rx="5" ry="5" style="stroke:#FEFECE;stroke-width:1.5;" width="74" x="597" y="239.5"/><text fill="#000000" font-family="sans-serif" font-size="14" lengthAdjust="spacing" textLength="42" x="602" y="256.0332">Option</text><text fill="#000000" font-family="sans-serif" font-size="14" lengthAdjust="spacing" textLength="0" x="666" y="256.0332"/><line style="stroke:#A80036;stroke-width:1.0;" x1="649" x2="649" y1="239.5" y2="261.1094"/><rect fill="none" height="21.6094" rx="5" ry="5" style="stroke:#A80036;stroke-width:1.5;" width="74" x="597" y="239.5"/><rect fill="#FEFECE" height="43.2188" rx="5" ry="5" style="stroke:#FEFECE;stroke-width:1.5;" width="71" x="759" y="259"/><text fill="#000000" font-family="sans-serif" font-size="14" lengthAdjust="spacing" textLength="61" x="764" y="275.5332">Allgemein</text><line style="stroke:#A80036;stroke-width:1.0;" x1="759" x2="830" y1="280.6094" y2="280.6094"/><text fill="#000000" font-family="sans-serif" font-size="14" lengthAdjust="spacing" textLength="48" x="764" y="297.1426">Speziell</text><rect fill="none" height="43.2188" rx="5" ry="5" style="stroke:#A80036;stroke-width:1.5;" width="71" x="759" y="259"/><path d="M659,41.5 L672,41.5 C687.341,41.5 703.7309,40.7049 719.3584,39.563 " fill="none" style="stroke:#A80036;stroke-width:1.0;stroke-dasharray:3.0,3.0;"/><path d="M719.593,42.604 L721.6391,39.3871 L719.1238,36.522 L726.9609,38.9766 L719.593,42.604 " fill="#A80036" style="stroke:#A80036;stroke-width:1.0;"/><ellipse cx="659" cy="41.5" fill="#A80036" rx="3" ry="3" style="stroke:#A80036;stroke-width:1.0;stroke-dasharray:3.0,3.0;"/><path d="M548,91.5 L561,91.5 C584.814,91.5 606.4869,72.9926 619.8094,58.4975 " fill="none" style="stroke:#A80036;stroke-width:1.0;stroke-dasharray:3.0,3.0;"/><path d="M622.1697,60.5696 L621.3635,56.7272 L617.449,56.4254 L624.9896,52.5966 L622.1697,60.5696 " fill="#A80036" style="stroke:#A80036;stroke-width:1.0;"/><ellipse cx="548" cy="91.5" fill="#A80036" rx="3" ry="3" style="stroke:#A80036;stroke-width:1.0;stroke-dasharray:3.0,3.0;"/><path d="M659,99.5 L672,99.5 C693.4458,99.5 716.9773,98.4086 737.6036,97.0876 " fill="none" style="stroke:#A80036;stroke-width:1.0;stroke-dasharray:3.0,3.0;"/><path d="M737.8099,100.1887 L739.9294,96.9329 L737.3973,93.9866 L745.3562,96.5719 L737.8099,100.1887 " fill="#A80036" style="stroke:#A80036;stroke-width:1.0;"/><ellipse cx="659" cy="99.5" fill="#A80036" rx="3" ry="3" style="stroke:#A80036;stroke-width:1.0;stroke-dasharray:3.0,3.0;"/><path d="M548,113.5 L561,113.5 C570.4072,113.5 580.3785,112.3496 589.8175,110.7084 " fill="none" style="stroke:#A80036;stroke-width:1.0;stroke-dasharray:3.0,3.0;"/><path d="M590.381,113.6823 L592.0479,110.2857 L589.2539,107.7345 L597.2523,109.2995 L590.381,113.6823 " fill="#A80036" style="stroke:#A80036;stroke-width:1.0;"/><ellipse cx="548" cy="113.5" fill="#A80036" rx="3" ry="3" style="stroke:#A80036;stroke-width:1.0;stroke-dasharray:3.0,3.0;"/><path d="M659,179.5 L672,179.5 C681.2908,179.5 690.9732,179.7048 700.6411,180.0445 " fill="none" style="stroke:#A80036;stroke-width:1.0;stroke-dasharray:3.0,3.0;"/><path d="M700.5212,183.1415 L702.9639,180.1344 L700.7611,176.9474 L708.3838,180.3444 L700.5212,183.1415 " fill="#A80036" style="stroke:#A80036;stroke-width:1.0;"/><ellipse cx="659" cy="179.5" fill="#A80036" rx="3" ry="3" style="stroke:#A80036;stroke-width:1.0;stroke-dasharray:3.0,3.0;"/><path d="M548,178.5 L561,178.5 C570.3368,178.5 580.3492,178.5839 589.8621,178.7032 " fill="none" style="stroke:#A80036;stroke-width:1.0;stroke-dasharray:3.0,3.0;"/><path d="M589.8212,181.703 L592.1119,178.7339 L589.903,175.7034 L597.3616,178.8055 L589.8212,181.703 " fill="#A80036" style="stroke:#A80036;stroke-width:1.0;"/><ellipse cx="548" cy="178.5" fill="#A80036" rx="3" ry="3" style="stroke:#A80036;stroke-width:1.0;stroke-dasharray:3.0,3.0;"/><path d="M659,250.5 L672,250.5 C699.1605,250.5 728.7639,257.5981 752.0073,264.889 " fill="none" style="stroke:#A80036;stroke-width:1.0;stroke-dasharray:3.0,3.0;"/><path d="M751.0612,267.8138 L754.2009,265.5986 L752.9534,261.9643 L759.3193,267.2542 L751.0612,267.8138 " fill="#A80036" style="stroke:#A80036;stroke-width:1.0;"/><ellipse cx="659" cy="250.5" fill="#A80036" rx="3" ry="3" style="stroke:#A80036;stroke-width:1.0;stroke-dasharray:3.0,3.0;"/><path d="M548,221.5 L561,221.5 C578.0853,221.5 595.9198,228.5287 609.6249,235.6655 " fill="none" style="stroke:#A80036;stroke-width:1.0;stroke-dasharray:3.0,3.0;"/><path d="M608.1428,238.3713 L611.6543,236.7771 L611.107,232.9596 L616.3896,239.3708 L608.1428,238.3713 " fill="#A80036" style="stroke:#A80036;stroke-width:1.0;"/><ellipse cx="548" cy="221.5" fill="#A80036" rx="3" ry="3" style="stroke:#A80036;stroke-width:1.0;stroke-dasharray:3.0,3.0;"/><path d="M173,146.5 L186,146.5 C195.3148,146.5 204.8683,146.5 214.5136,146.5 " fill="none" style="stroke:#A80036;stroke-width:1.0;stroke-dasharray:3.0,3.0;"/><path d="M214.5136,149.6009 L216.8393,146.5 L214.5136,143.3991 L222.2659,146.5 L214.5136,149.6009 " fill="#A80036" style="stroke:#A80036;stroke-width:1.0;"/><ellipse cx="173" cy="146.5" fill="#A80036" rx="3" ry="3" style="stroke:#A80036;stroke-width:1.0;stroke-dasharray:3.0,3.0;"/><!--MD5=[da8d9b661c1909c54647ffc782775d98]
@startjson
{
  "Entscheidungstabellen": {
    "Code": "Code20",
    "Beschreibung": "Text100",
    "Referenzart": {
      "Option": [
        "Stückliste-Fertigung",
        "Arbeitsplan"
      ]
    },
    "Status": {
      "Option": [
        "In Entwicklung",
        "Zertifiziert"
      ]
    },
    "Bedingungsset Code": "Code20",
    "Aktionsset Code": "Code20",
    "Art": {
      "Option": [
        "Standard",
        "Prüfung",
        "Select",
        "Sachmerkmal ausblenden",
        "Preisgruppen"
      ]
    },
    "Nicht plausible Ausprägungen ausblenden": "Boolean",
    "Verwendung": {
      "Option": [
        "Allgemein",
        "Speziell"
      ]
    },
    "Tabellenname": "Text250"
  }
}
@endjson

PlantUML version 1.2021.7(Sun May 23 14:40:07 CEST 2021)
(GPL source distribution)
Java Runtime: OpenJDK Runtime Environment
JVM: Dynamic Code Evolution 64-Bit Server VM
Default Encoding: Cp1252
Language: de
Country: DE
--></g></svg>