<?xml version="1.0" encoding="UTF-8" standalone="no"?><svg xmlns="http://www.w3.org/2000/svg" xmlns:xlink="http://www.w3.org/1999/xlink" contentScriptType="application/ecmascript" contentStyleType="text/css" height="400px" preserveAspectRatio="none" style="width:704px;height:400px;background:#FFFFFF;" version="1.1" viewBox="0 0 704 400" width="704px" zoomAndPan="magnify"><defs/><g><rect fill="#FEFECE" height="21.6094" rx="5" ry="5" style="stroke:#FEFECE;stroke-width:1.5;" width="74" x="10" y="193.5"/><text fill="#000000" font-family="sans-serif" font-size="14" lengthAdjust="spacing" textLength="42" x="15" y="210.0332">Klasse</text><text fill="#000000" font-family="sans-serif" font-size="14" lengthAdjust="spacing" textLength="0" x="79" y="210.0332"/><line style="stroke:#A80036;stroke-width:1.0;" x1="62" x2="62" y1="193.5" y2="215.1094"/><rect fill="none" height="21.6094" rx="5" ry="5" style="stroke:#A80036;stroke-width:1.5;" width="74" x="10" y="193.5"/><rect fill="#FEFECE" height="367.3594" rx="5" ry="5" style="stroke:#FEFECE;stroke-width:1.5;" width="323" x="121" y="21"/><text fill="#000000" font-family="sans-serif" font-size="14" lengthAdjust="spacing" textLength="67" x="126" y="37.5332">Klassenart</text><text fill="#000000" font-family="sans-serif" font-size="14" lengthAdjust="spacing" textLength="0" x="393" y="37.5332"/><line style="stroke:#A80036;stroke-width:1.0;" x1="376" x2="376" y1="21" y2="42.6094"/><line style="stroke:#A80036;stroke-width:1.0;" x1="121" x2="444" y1="42.6094" y2="42.6094"/><text fill="#000000" font-family="sans-serif" font-size="14" lengthAdjust="spacing" textLength="34" x="126" y="59.1426">Code</text><text fill="#000000" font-family="sans-serif" font-size="14" lengthAdjust="spacing" textLength="50" x="381" y="59.1426">Code10</text><line style="stroke:#A80036;stroke-width:1.0;" x1="376" x2="376" y1="42.6094" y2="64.2188"/><line style="stroke:#A80036;stroke-width:1.0;" x1="121" x2="444" y1="64.2188" y2="64.2188"/><text fill="#000000" font-family="sans-serif" font-size="14" lengthAdjust="spacing" textLength="87" x="126" y="80.752">Beschreibung</text><text fill="#000000" font-family="sans-serif" font-size="14" lengthAdjust="spacing" textLength="51" x="381" y="80.752">Text100</text><line style="stroke:#A80036;stroke-width:1.0;" x1="376" x2="376" y1="64.2188" y2="85.8281"/><line style="stroke:#A80036;stroke-width:1.0;" x1="121" x2="444" y1="85.8281" y2="85.8281"/><text fill="#000000" font-family="sans-serif" font-size="14" lengthAdjust="spacing" textLength="72" x="126" y="102.3613">Suchbegriff</text><text fill="#000000" font-family="sans-serif" font-size="14" lengthAdjust="spacing" textLength="58" x="381" y="102.3613">Code100</text><line style="stroke:#A80036;stroke-width:1.0;" x1="376" x2="376" y1="85.8281" y2="107.4375"/><line style="stroke:#A80036;stroke-width:1.0;" x1="121" x2="444" y1="107.4375" y2="107.4375"/><text fill="#000000" font-family="sans-serif" font-size="14" lengthAdjust="spacing" textLength="40" x="126" y="123.9707">Status</text><text fill="#000000" font-family="sans-serif" font-size="14" lengthAdjust="spacing" textLength="0" x="393" y="123.9707"/><line style="stroke:#A80036;stroke-width:1.0;" x1="376" x2="376" y1="107.4375" y2="129.0469"/><line style="stroke:#A80036;stroke-width:1.0;" x1="121" x2="444" y1="129.0469" y2="129.0469"/><text fill="#000000" font-family="sans-serif" font-size="14" lengthAdjust="spacing" textLength="110" x="126" y="145.5801">Änderung erlaubt</text><text fill="#000000" font-family="sans-serif" font-size="14" lengthAdjust="spacing" textLength="52" x="381" y="145.5801">Boolean</text><line style="stroke:#A80036;stroke-width:1.0;" x1="376" x2="376" y1="129.0469" y2="150.6563"/><line style="stroke:#A80036;stroke-width:1.0;" x1="121" x2="444" y1="150.6563" y2="150.6563"/><text fill="#000000" font-family="sans-serif" font-size="14" lengthAdjust="spacing" textLength="83" x="126" y="167.1895">Geändert am</text><text fill="#000000" font-family="sans-serif" font-size="14" lengthAdjust="spacing" textLength="30" x="381" y="167.1895">Date</text><line style="stroke:#A80036;stroke-width:1.0;" x1="376" x2="376" y1="150.6563" y2="172.2656"/><line style="stroke:#A80036;stroke-width:1.0;" x1="121" x2="444" y1="172.2656" y2="172.2656"/><text fill="#000000" font-family="sans-serif" font-size="14" lengthAdjust="spacing" textLength="87" x="126" y="188.7988">Geändert von</text><text fill="#000000" font-family="sans-serif" font-size="14" lengthAdjust="spacing" textLength="50" x="381" y="188.7988">Code50</text><line style="stroke:#A80036;stroke-width:1.0;" x1="376" x2="376" y1="172.2656" y2="193.875"/><line style="stroke:#A80036;stroke-width:1.0;" x1="121" x2="444" y1="193.875" y2="193.875"/><text fill="#000000" font-family="sans-serif" font-size="14" lengthAdjust="spacing" textLength="120" x="126" y="210.4082">Variantennummern</text><text fill="#000000" font-family="sans-serif" font-size="14" lengthAdjust="spacing" textLength="50" x="381" y="210.4082">Code20</text><line style="stroke:#A80036;stroke-width:1.0;" x1="376" x2="376" y1="193.875" y2="215.4844"/><line style="stroke:#A80036;stroke-width:1.0;" x1="121" x2="444" y1="215.4844" y2="215.4844"/><text fill="#000000" font-family="sans-serif" font-size="14" lengthAdjust="spacing" textLength="148" x="126" y="232.0176">Subvarianten Nummern</text><text fill="#000000" font-family="sans-serif" font-size="14" lengthAdjust="spacing" textLength="50" x="381" y="232.0176">Code20</text><line style="stroke:#A80036;stroke-width:1.0;" x1="376" x2="376" y1="215.4844" y2="237.0938"/><line style="stroke:#A80036;stroke-width:1.0;" x1="121" x2="444" y1="237.0938" y2="237.0938"/><text fill="#000000" font-family="sans-serif" font-size="14" lengthAdjust="spacing" textLength="204" x="126" y="253.627">LHD Subvarianten Checksumme</text><text fill="#000000" font-family="sans-serif" font-size="14" lengthAdjust="spacing" textLength="50" x="381" y="253.627">Code40</text><line style="stroke:#A80036;stroke-width:1.0;" x1="376" x2="376" y1="237.0938" y2="258.7031"/><line style="stroke:#A80036;stroke-width:1.0;" x1="121" x2="444" y1="258.7031" y2="258.7031"/><text fill="#000000" font-family="sans-serif" font-size="14" lengthAdjust="spacing" textLength="227" x="126" y="275.2363">Technik Subvarianten Checksumme</text><text fill="#000000" font-family="sans-serif" font-size="14" lengthAdjust="spacing" textLength="50" x="381" y="275.2363">Code40</text><line style="stroke:#A80036;stroke-width:1.0;" x1="376" x2="376" y1="258.7031" y2="280.3125"/><line style="stroke:#A80036;stroke-width:1.0;" x1="121" x2="444" y1="280.3125" y2="280.3125"/><text fill="#000000" font-family="sans-serif" font-size="14" lengthAdjust="spacing" textLength="226" x="126" y="296.8457">Verkauf Subvarianten Checksumme</text><text fill="#000000" font-family="sans-serif" font-size="14" lengthAdjust="spacing" textLength="50" x="381" y="296.8457">Code40</text><line style="stroke:#A80036;stroke-width:1.0;" x1="376" x2="376" y1="280.3125" y2="301.9219"/><line style="stroke:#A80036;stroke-width:1.0;" x1="121" x2="444" y1="301.9219" y2="301.9219"/><text fill="#000000" font-family="sans-serif" font-size="14" lengthAdjust="spacing" textLength="245" x="126" y="318.4551">Produktion Subvarianten Checksumme</text><text fill="#000000" font-family="sans-serif" font-size="14" lengthAdjust="spacing" textLength="50" x="381" y="318.4551">Code40</text><line style="stroke:#A80036;stroke-width:1.0;" x1="376" x2="376" y1="301.9219" y2="323.5313"/><line style="stroke:#A80036;stroke-width:1.0;" x1="121" x2="444" y1="323.5313" y2="323.5313"/><text fill="#000000" font-family="sans-serif" font-size="14" lengthAdjust="spacing" textLength="200" x="126" y="340.0645">Bild Subvarianten Checksumme</text><text fill="#000000" font-family="sans-serif" font-size="14" lengthAdjust="spacing" textLength="50" x="381" y="340.0645">Code40</text><line style="stroke:#A80036;stroke-width:1.0;" x1="376" x2="376" y1="323.5313" y2="345.1406"/><line style="stroke:#A80036;stroke-width:1.0;" x1="121" x2="444" y1="345.1406" y2="345.1406"/><text fill="#000000" font-family="sans-serif" font-size="14" lengthAdjust="spacing" textLength="217" x="126" y="361.6738">Export Subvarianten Checksumme</text><text fill="#000000" font-family="sans-serif" font-size="14" lengthAdjust="spacing" textLength="50" x="381" y="361.6738">Code40</text><line style="stroke:#A80036;stroke-width:1.0;" x1="376" x2="376" y1="345.1406" y2="366.75"/><line style="stroke:#A80036;stroke-width:1.0;" x1="121" x2="444" y1="366.75" y2="366.75"/><text fill="#000000" font-family="sans-serif" font-size="14" lengthAdjust="spacing" textLength="185" x="126" y="383.2832">Variantenstring Checksumme</text><text fill="#000000" font-family="sans-serif" font-size="14" lengthAdjust="spacing" textLength="50" x="381" y="383.2832">Code40</text><line style="stroke:#A80036;stroke-width:1.0;" x1="376" x2="376" y1="366.75" y2="388.3594"/><rect fill="none" height="367.3594" rx="5" ry="5" style="stroke:#A80036;stroke-width:1.5;" width="323" x="121" y="21"/><rect fill="#FEFECE" height="21.6094" rx="5" ry="5" style="stroke:#FEFECE;stroke-width:1.5;" width="74" x="481" y="20.5"/><text fill="#000000" font-family="sans-serif" font-size="14" lengthAdjust="spacing" textLength="42" x="486" y="37.0332">Option</text><text fill="#000000" font-family="sans-serif" font-size="14" lengthAdjust="spacing" textLength="0" x="550" y="37.0332"/><line style="stroke:#A80036;stroke-width:1.0;" x1="533" x2="533" y1="20.5" y2="42.1094"/><rect fill="none" height="21.6094" rx="5" ry="5" style="stroke:#A80036;stroke-width:1.5;" width="74" x="481" y="20.5"/><rect fill="#FEFECE" height="43.2188" rx="5" ry="5" style="stroke:#FEFECE;stroke-width:1.5;" width="100" x="592" y="10"/><text fill="#000000" font-family="sans-serif" font-size="14" lengthAdjust="spacing" textLength="90" x="597" y="26.5332">Klassifizierung</text><line style="stroke:#A80036;stroke-width:1.0;" x1="592" x2="692" y1="31.6094" y2="31.6094"/><text fill="#000000" font-family="sans-serif" font-size="14" lengthAdjust="spacing" textLength="48" x="597" y="48.1426">Suchen</text><rect fill="none" height="43.2188" rx="5" ry="5" style="stroke:#A80036;stroke-width:1.5;" width="100" x="592" y="10"/><rect fill="#FEFECE" height="21.6094" rx="5" ry="5" style="stroke:#FEFECE;stroke-width:1.5;" width="74" x="481" y="106.5"/><text fill="#000000" font-family="sans-serif" font-size="14" lengthAdjust="spacing" textLength="42" x="486" y="123.0332">Option</text><text fill="#000000" font-family="sans-serif" font-size="14" lengthAdjust="spacing" textLength="0" x="550" y="123.0332"/><line style="stroke:#A80036;stroke-width:1.0;" x1="533" x2="533" y1="106.5" y2="128.1094"/><rect fill="none" height="21.6094" rx="5" ry="5" style="stroke:#A80036;stroke-width:1.5;" width="74" x="481" y="106.5"/><rect fill="#FEFECE" height="43.2188" rx="5" ry="5" style="stroke:#FEFECE;stroke-width:1.5;" width="99" x="592.5" y="96"/><text fill="#000000" font-family="sans-serif" font-size="14" lengthAdjust="spacing" textLength="89" x="597.5" y="112.5332">In Entwicklung</text><line style="stroke:#A80036;stroke-width:1.0;" x1="592.5" x2="691.5" y1="117.6094" y2="117.6094"/><text fill="#000000" font-family="sans-serif" font-size="14" lengthAdjust="spacing" textLength="61" x="597.5" y="134.1426">Zertifiziert</text><rect fill="none" height="43.2188" rx="5" ry="5" style="stroke:#A80036;stroke-width:1.5;" width="99" x="592.5" y="96"/><path d="M543,31.5 L556,31.5 C565.253,31.5 575.0693,31.5 584.6259,31.5 " fill="none" style="stroke:#A80036;stroke-width:1.0;stroke-dasharray:3.0,3.0;"/><path d="M584.6259,34.5371 L586.9037,31.5 L584.6259,28.4629 L592.2187,31.5 L584.6259,34.5371 " fill="#A80036" style="stroke:#A80036;stroke-width:1.0;"/><ellipse cx="543" cy="31.5" fill="#A80036" rx="3" ry="3" style="stroke:#A80036;stroke-width:1.0;stroke-dasharray:3.0,3.0;"/><path d="M432,31.5 L445,31.5 C454.2434,31.5 464.1498,31.5 473.578,31.5 " fill="none" style="stroke:#A80036;stroke-width:1.0;stroke-dasharray:3.0,3.0;"/><path d="M473.578,34.6129 L475.9127,31.5 L473.578,28.3871 L481.3603,31.5 L473.578,34.6129 " fill="#A80036" style="stroke:#A80036;stroke-width:1.0;"/><ellipse cx="432" cy="31.5" fill="#A80036" rx="3" ry="3" style="stroke:#A80036;stroke-width:1.0;stroke-dasharray:3.0,3.0;"/><path d="M543,117.5 L556,117.5 C565.3701,117.5 575.3179,117.5 584.9886,117.5 " fill="none" style="stroke:#A80036;stroke-width:1.0;stroke-dasharray:3.0,3.0;"/><path d="M584.9886,120.572 L587.2927,117.5 L584.9886,114.428 L592.6687,117.5 L584.9886,120.572 " fill="#A80036" style="stroke:#A80036;stroke-width:1.0;"/><ellipse cx="543" cy="117.5" fill="#A80036" rx="3" ry="3" style="stroke:#A80036;stroke-width:1.0;stroke-dasharray:3.0,3.0;"/><path d="M432,117.5 L445,117.5 C454.2434,117.5 464.1498,117.5 473.578,117.5 " fill="none" style="stroke:#A80036;stroke-width:1.0;stroke-dasharray:3.0,3.0;"/><path d="M473.578,120.6129 L475.9127,117.5 L473.578,114.3871 L481.3603,117.5 L473.578,120.6129 " fill="#A80036" style="stroke:#A80036;stroke-width:1.0;"/><ellipse cx="432" cy="117.5" fill="#A80036" rx="3" ry="3" style="stroke:#A80036;stroke-width:1.0;stroke-dasharray:3.0,3.0;"/><path d="M72,204.5 L85,204.5 C94.3105,204.5 103.8686,204.5 113.5162,204.5 " fill="none" style="stroke:#A80036;stroke-width:1.0;stroke-dasharray:3.0,3.0;"/><path d="M113.5162,207.6014 L115.8422,204.5 L113.5162,201.3986 L121.2696,204.5 L113.5162,207.6014 " fill="#A80036" style="stroke:#A80036;stroke-width:1.0;"/><ellipse cx="72" cy="204.5" fill="#A80036" rx="3" ry="3" style="stroke:#A80036;stroke-width:1.0;stroke-dasharray:3.0,3.0;"/><!--MD5=[6ce2af516c2e3939463f3df41541ab26]
@startjson
{
  "Klasse": {
    "Klassenart":{"Option" : [
    "Klassifizierung",
    "Suchen"]},
    "Code":"Code10",
    "Beschreibung":"Text100",
    "Suchbegriff":"Code100",
    "Status":{"Option": [
    "In Entwicklung",
    "Zertifiziert"]},
    "Änderung erlaubt":"Boolean",
    "Geändert am":"Date",
    "Geändert von":"Code50",
    "Variantennummern":"Code20",
    "Subvarianten Nummern":"Code20",
    "LHD Subvarianten Checksumme":"Code40",
    "Technik Subvarianten Checksumme":"Code40",
    "Verkauf Subvarianten Checksumme":"Code40",
    "Produktion Subvarianten Checksumme":"Code40",
    "Bild Subvarianten Checksumme":"Code40",
    "Export Subvarianten Checksumme":"Code40",
    "Variantenstring Checksumme":"Code40"
  }
}
@endjson

PlantUML version 1.2021.7(Sun May 23 14:40:07 CEST 2021)
(GPL source distribution)
Java Runtime: OpenJDK Runtime Environment
JVM: Dynamic Code Evolution 64-Bit Server VM
Default Encoding: Cp1252
Language: de
Country: DE
--></g></svg>