<?xml version="1.0" encoding="UTF-8" standalone="no"?><svg xmlns="http://www.w3.org/2000/svg" xmlns:xlink="http://www.w3.org/1999/xlink" contentScriptType="application/ecmascript" contentStyleType="text/css" height="255px" preserveAspectRatio="none" style="width:658px;height:255px;background:#FFFFFF;" version="1.1" viewBox="0 0 658 255" width="658px" zoomAndPan="magnify"><defs/><g><rect fill="#FEFECE" height="21.6094" rx="5" ry="5" style="stroke:#FEFECE;stroke-width:1.5;" width="92" x="10" y="82.5"/><text fill="#000000" font-family="sans-serif" font-size="14" lengthAdjust="spacing" textLength="60" x="15" y="99.0332">AktionSet</text><text fill="#000000" font-family="sans-serif" font-size="14" lengthAdjust="spacing" textLength="0" x="97" y="99.0332"/><line style="stroke:#A80036;stroke-width:1.0;" x1="80" x2="80" y1="82.5" y2="104.1094"/><rect fill="none" height="21.6094" rx="5" ry="5" style="stroke:#A80036;stroke-width:1.5;" width="92" x="10" y="82.5"/><rect fill="#FEFECE" height="129.6563" rx="5" ry="5" style="stroke:#FEFECE;stroke-width:1.5;" width="161" x="139" y="28.5"/><text fill="#000000" font-family="sans-serif" font-size="14" lengthAdjust="spacing" textLength="34" x="144" y="45.0332">Code</text><text fill="#000000" font-family="sans-serif" font-size="14" lengthAdjust="spacing" textLength="50" x="244" y="45.0332">Code20</text><line style="stroke:#A80036;stroke-width:1.0;" x1="239" x2="239" y1="28.5" y2="50.1094"/><line style="stroke:#A80036;stroke-width:1.0;" x1="139" x2="300" y1="50.1094" y2="50.1094"/><text fill="#000000" font-family="sans-serif" font-size="14" lengthAdjust="spacing" textLength="87" x="144" y="66.6426">Beschreibung</text><text fill="#000000" font-family="sans-serif" font-size="14" lengthAdjust="spacing" textLength="51" x="244" y="66.6426">Text100</text><line style="stroke:#A80036;stroke-width:1.0;" x1="239" x2="239" y1="50.1094" y2="71.7188"/><line style="stroke:#A80036;stroke-width:1.0;" x1="139" x2="300" y1="71.7188" y2="71.7188"/><text fill="#000000" font-family="sans-serif" font-size="14" lengthAdjust="spacing" textLength="74" x="144" y="88.252">Referenzart</text><text fill="#000000" font-family="sans-serif" font-size="14" lengthAdjust="spacing" textLength="0" x="256" y="88.252"/><line style="stroke:#A80036;stroke-width:1.0;" x1="239" x2="239" y1="71.7188" y2="93.3281"/><line style="stroke:#A80036;stroke-width:1.0;" x1="139" x2="300" y1="93.3281" y2="93.3281"/><text fill="#000000" font-family="sans-serif" font-size="14" lengthAdjust="spacing" textLength="75" x="144" y="109.8613">Aktionsart 1</text><text fill="#000000" font-family="sans-serif" font-size="14" lengthAdjust="spacing" textLength="0" x="256" y="109.8613"/><line style="stroke:#A80036;stroke-width:1.0;" x1="239" x2="239" y1="93.3281" y2="114.9375"/><line style="stroke:#A80036;stroke-width:1.0;" x1="139" x2="300" y1="114.9375" y2="114.9375"/><text fill="#000000" font-family="sans-serif" font-size="14" lengthAdjust="spacing" textLength="89" x="144" y="131.4707">Aktionscode 1</text><text fill="#000000" font-family="sans-serif" font-size="14" lengthAdjust="spacing" textLength="43" x="244" y="131.4707">Text80</text><line style="stroke:#A80036;stroke-width:1.0;" x1="239" x2="239" y1="114.9375" y2="136.5469"/><line style="stroke:#A80036;stroke-width:1.0;" x1="139" x2="300" y1="136.5469" y2="136.5469"/><text fill="#000000" font-family="sans-serif" font-size="14" lengthAdjust="spacing" textLength="90" x="144" y="153.0801">Tabellenname</text><text fill="#000000" font-family="sans-serif" font-size="14" lengthAdjust="spacing" textLength="51" x="244" y="153.0801">Text250</text><line style="stroke:#A80036;stroke-width:1.0;" x1="239" x2="239" y1="136.5469" y2="158.1563"/><rect fill="none" height="129.6563" rx="5" ry="5" style="stroke:#A80036;stroke-width:1.5;" width="161" x="139" y="28.5"/><rect fill="#FEFECE" height="21.6094" rx="5" ry="5" style="stroke:#FEFECE;stroke-width:1.5;" width="74" x="337" y="41.5"/><text fill="#000000" font-family="sans-serif" font-size="14" lengthAdjust="spacing" textLength="42" x="342" y="58.0332">Option</text><text fill="#000000" font-family="sans-serif" font-size="14" lengthAdjust="spacing" textLength="0" x="406" y="58.0332"/><line style="stroke:#A80036;stroke-width:1.0;" x1="389" x2="389" y1="41.5" y2="63.1094"/><rect fill="none" height="21.6094" rx="5" ry="5" style="stroke:#A80036;stroke-width:1.5;" width="74" x="337" y="41.5"/><rect fill="#FEFECE" height="43.2188" rx="5" ry="5" style="stroke:#FEFECE;stroke-width:1.5;" width="136" x="479" y="10"/><text fill="#000000" font-family="sans-serif" font-size="14" lengthAdjust="spacing" textLength="126" x="484" y="26.5332">Stückliste-Fertigung</text><line style="stroke:#A80036;stroke-width:1.0;" x1="479" x2="615" y1="31.6094" y2="31.6094"/><text fill="#000000" font-family="sans-serif" font-size="14" lengthAdjust="spacing" textLength="71" x="484" y="48.1426">Arbeitsplan</text><rect fill="none" height="43.2188" rx="5" ry="5" style="stroke:#A80036;stroke-width:1.5;" width="136" x="479" y="10"/><rect fill="#FEFECE" height="21.6094" rx="5" ry="5" style="stroke:#FEFECE;stroke-width:1.5;" width="74" x="337" y="124.5"/><text fill="#000000" font-family="sans-serif" font-size="14" lengthAdjust="spacing" textLength="42" x="342" y="141.0332">Option</text><text fill="#000000" font-family="sans-serif" font-size="14" lengthAdjust="spacing" textLength="0" x="406" y="141.0332"/><line style="stroke:#A80036;stroke-width:1.0;" x1="389" x2="389" y1="124.5" y2="146.1094"/><rect fill="none" height="21.6094" rx="5" ry="5" style="stroke:#A80036;stroke-width:1.5;" width="74" x="337" y="124.5"/><rect fill="#FEFECE" height="172.875" rx="5" ry="5" style="stroke:#FEFECE;stroke-width:1.5;" width="198" x="448" y="71"/><text fill="#000000" font-family="sans-serif" font-size="14" lengthAdjust="spacing" textLength="85" x="453" y="87.5332">Sachmerkmal</text><line style="stroke:#A80036;stroke-width:1.0;" x1="448" x2="646" y1="92.6094" y2="92.6094"/><text fill="#000000" font-family="sans-serif" font-size="14" lengthAdjust="spacing" textLength="78" x="453" y="109.1426">Tabellenfeld</text><line style="stroke:#A80036;stroke-width:1.0;" x1="448" x2="646" y1="114.2188" y2="114.2188"/><text fill="#000000" font-family="sans-serif" font-size="14" lengthAdjust="spacing" textLength="153" x="453" y="130.752">NV-Numerische Variable</text><line style="stroke:#A80036;stroke-width:1.0;" x1="448" x2="646" y1="135.8281" y2="135.8281"/><text fill="#000000" font-family="sans-serif" font-size="14" lengthAdjust="spacing" textLength="188" x="453" y="152.3613">AV-Alphanumerische Variable</text><line style="stroke:#A80036;stroke-width:1.0;" x1="448" x2="646" y1="157.4375" y2="157.4375"/><text fill="#000000" font-family="sans-serif" font-size="14" lengthAdjust="spacing" textLength="46" x="453" y="173.9707">Ja/Nein</text><line style="stroke:#A80036;stroke-width:1.0;" x1="448" x2="646" y1="179.0469" y2="179.0469"/><text fill="#000000" font-family="sans-serif" font-size="14" lengthAdjust="spacing" textLength="41" x="453" y="195.5801">Fehler</text><line style="stroke:#A80036;stroke-width:1.0;" x1="448" x2="646" y1="200.6563" y2="200.6563"/><text fill="#000000" font-family="sans-serif" font-size="14" lengthAdjust="spacing" textLength="54" x="453" y="217.1895">Meldung</text><line style="stroke:#A80036;stroke-width:1.0;" x1="448" x2="646" y1="222.2656" y2="222.2656"/><text fill="#000000" font-family="sans-serif" font-size="14" lengthAdjust="spacing" textLength="85" x="453" y="238.7988">Preisgruppen</text><rect fill="none" height="172.875" rx="5" ry="5" style="stroke:#A80036;stroke-width:1.5;" width="198" x="448" y="71"/><path d="M399,52.5 L412,52.5 C431.5079,52.5 452.4188,50.3168 471.8,47.3582 " fill="none" style="stroke:#A80036;stroke-width:1.0;stroke-dasharray:3.0,3.0;"/><path d="M472.2863,50.4104 L474.0891,46.9934 L471.3136,44.306 L479.4304,46.1423 L472.2863,50.4104 " fill="#A80036" style="stroke:#A80036;stroke-width:1.0;"/><ellipse cx="399" cy="52.5" fill="#A80036" rx="3" ry="3" style="stroke:#A80036;stroke-width:1.0;stroke-dasharray:3.0,3.0;"/><path d="M288,82.5 L301,82.5 C318.5158,82.5 336.7269,74.9312 350.5157,67.397 " fill="none" style="stroke:#A80036;stroke-width:1.0;stroke-dasharray:3.0,3.0;"/><path d="M352.0743,70.1092 L352.5499,66.2281 L348.9572,64.6848 L357.2962,63.5005 L352.0743,70.1092 " fill="#A80036" style="stroke:#A80036;stroke-width:1.0;"/><ellipse cx="288" cy="82.5" fill="#A80036" rx="3" ry="3" style="stroke:#A80036;stroke-width:1.0;stroke-dasharray:3.0,3.0;"/><path d="M399,135.5 L412,135.5 C421.335,135.5 430.9872,136.0225 440.6372,136.9065 " fill="none" style="stroke:#A80036;stroke-width:1.0;stroke-dasharray:3.0,3.0;"/><path d="M440.3238,139.9995 L442.9569,137.1415 L440.9505,133.8135 L448.3696,137.6899 L440.3238,139.9995 " fill="#A80036" style="stroke:#A80036;stroke-width:1.0;"/><ellipse cx="399" cy="135.5" fill="#A80036" rx="3" ry="3" style="stroke:#A80036;stroke-width:1.0;stroke-dasharray:3.0,3.0;"/><path d="M288,104.5 L301,104.5 C318.8355,104.5 337.2956,112.5297 351.1247,120.4157 " fill="none" style="stroke:#A80036;stroke-width:1.0;stroke-dasharray:3.0,3.0;"/><path d="M349.4977,123.1285 L353.1593,121.636 L352.7518,117.703 L357.9065,124.4833 L349.4977,123.1285 " fill="#A80036" style="stroke:#A80036;stroke-width:1.0;"/><ellipse cx="288" cy="104.5" fill="#A80036" rx="3" ry="3" style="stroke:#A80036;stroke-width:1.0;stroke-dasharray:3.0,3.0;"/><path d="M90,93.5 L103,93.5 C112.2961,93.5 122.0113,93.5 131.6922,93.5 " fill="none" style="stroke:#A80036;stroke-width:1.0;stroke-dasharray:3.0,3.0;"/><path d="M131.6922,96.5991 L134.0166,93.5 L131.6922,90.4009 L139.4401,93.5 L131.6922,96.5991 " fill="#A80036" style="stroke:#A80036;stroke-width:1.0;"/><ellipse cx="90" cy="93.5" fill="#A80036" rx="3" ry="3" style="stroke:#A80036;stroke-width:1.0;stroke-dasharray:3.0,3.0;"/><!--MD5=[e99ab2f496400a1c98a5ccd399b76dd1]
@startjson
{
  "AktionSet": {
    "Code": "Code20",
    "Beschreibung": "Text100",
    "Referenzart": {
      "Option": [
        "Stückliste-Fertigung",
        "Arbeitsplan"
      ]
    },
    "Aktionsart 1": {
      "Option": [
        "Sachmerkmal",
        "Tabellenfeld",
        "NV-Numerische Variable",
        "AV-Alphanumerische Variable",
        "Ja/Nein",
        "Fehler",
        "Meldung",
        "Preisgruppen"
      ]
    },
    "Aktionscode 1": "Text80",
    "Tabellenname": "Text250"
  }
}
@endjson

PlantUML version 1.2021.7(Sun May 23 14:40:07 CEST 2021)
(GPL source distribution)
Java Runtime: OpenJDK Runtime Environment
JVM: Dynamic Code Evolution 64-Bit Server VM
Default Encoding: Cp1252
Language: de
Country: DE
--></g></svg>