<?xml version="1.0" encoding="UTF-8" standalone="no"?><svg xmlns="http://www.w3.org/2000/svg" xmlns:xlink="http://www.w3.org/1999/xlink" contentScriptType="application/ecmascript" contentStyleType="text/css" height="130px" preserveAspectRatio="none" style="width:378px;height:130px;background:#FFFFFF;" version="1.1" viewBox="0 0 378 130" width="378px" zoomAndPan="magnify"><defs/><g><rect fill="#FEFECE" height="21.6094" rx="5" ry="5" style="stroke:#FEFECE;stroke-width:1.5;" width="149" x="10" y="53"/><text fill="#000000" font-family="sans-serif" font-size="14" lengthAdjust="spacing" textLength="117" x="15" y="69.5332">Artikelübersetzung</text><text fill="#000000" font-family="sans-serif" font-size="14" lengthAdjust="spacing" textLength="0" x="154" y="69.5332"/><line style="stroke:#A80036;stroke-width:1.0;" x1="137" x2="137" y1="53" y2="74.6094"/><rect fill="none" height="21.6094" rx="5" ry="5" style="stroke:#A80036;stroke-width:1.5;" width="149" x="10" y="53"/><rect fill="#FEFECE" height="108.0469" rx="5" ry="5" style="stroke:#FEFECE;stroke-width:1.5;" width="170" x="196" y="10"/><text fill="#000000" font-family="sans-serif" font-size="14" lengthAdjust="spacing" textLength="56" x="201" y="26.5332">Artikelnr.</text><text fill="#000000" font-family="sans-serif" font-size="14" lengthAdjust="spacing" textLength="50" x="310" y="26.5332">Code20</text><line style="stroke:#A80036;stroke-width:1.0;" x1="305" x2="305" y1="10" y2="31.6094"/><line style="stroke:#A80036;stroke-width:1.0;" x1="196" x2="366" y1="31.6094" y2="31.6094"/><text fill="#000000" font-family="sans-serif" font-size="14" lengthAdjust="spacing" textLength="92" x="201" y="48.1426">Variantencode</text><text fill="#000000" font-family="sans-serif" font-size="14" lengthAdjust="spacing" textLength="50" x="310" y="48.1426">Code10</text><line style="stroke:#A80036;stroke-width:1.0;" x1="305" x2="305" y1="31.6094" y2="53.2188"/><line style="stroke:#A80036;stroke-width:1.0;" x1="196" x2="366" y1="53.2188" y2="53.2188"/><text fill="#000000" font-family="sans-serif" font-size="14" lengthAdjust="spacing" textLength="76" x="201" y="69.752">Sprachcode</text><text fill="#000000" font-family="sans-serif" font-size="14" lengthAdjust="spacing" textLength="50" x="310" y="69.752">Code10</text><line style="stroke:#A80036;stroke-width:1.0;" x1="305" x2="305" y1="53.2188" y2="74.8281"/><line style="stroke:#A80036;stroke-width:1.0;" x1="196" x2="366" y1="74.8281" y2="74.8281"/><text fill="#000000" font-family="sans-serif" font-size="14" lengthAdjust="spacing" textLength="87" x="201" y="91.3613">Beschreibung</text><text fill="#000000" font-family="sans-serif" font-size="14" lengthAdjust="spacing" textLength="51" x="310" y="91.3613">Text100</text><line style="stroke:#A80036;stroke-width:1.0;" x1="305" x2="305" y1="74.8281" y2="96.4375"/><line style="stroke:#A80036;stroke-width:1.0;" x1="196" x2="366" y1="96.4375" y2="96.4375"/><text fill="#000000" font-family="sans-serif" font-size="14" lengthAdjust="spacing" textLength="99" x="201" y="112.9707">Beschreibung 2</text><text fill="#000000" font-family="sans-serif" font-size="14" lengthAdjust="spacing" textLength="43" x="310" y="112.9707">Text50</text><line style="stroke:#A80036;stroke-width:1.0;" x1="305" x2="305" y1="96.4375" y2="118.0469"/><rect fill="none" height="108.0469" rx="5" ry="5" style="stroke:#A80036;stroke-width:1.5;" width="170" x="196" y="10"/><path d="M147,64 L160,64 C169.2441,64 178.8871,64 188.5158,64 " fill="none" style="stroke:#A80036;stroke-width:1.0;stroke-dasharray:3.0,3.0;"/><path d="M188.5158,67.0845 L190.8292,64 L188.5158,60.9155 L196.227,64 L188.5158,67.0845 " fill="#A80036" style="stroke:#A80036;stroke-width:1.0;"/><ellipse cx="147" cy="64" fill="#A80036" rx="3" ry="3" style="stroke:#A80036;stroke-width:1.0;stroke-dasharray:3.0,3.0;"/><!--MD5=[49c0e7b2fcb753fb132dd19a841af00c]
@startjson
{
  "Artikelübersetzung": {
    "Artikelnr.": "Code20",
    "Variantencode": "Code10",
    "Sprachcode": "Code10",
    "Beschreibung": "Text100",
    "Beschreibung 2": "Text50"
  }
}
@endjson

PlantUML version 1.2021.7(Sun May 23 14:40:07 CEST 2021)
(GPL source distribution)
Java Runtime: OpenJDK Runtime Environment
JVM: Dynamic Code Evolution 64-Bit Server VM
Default Encoding: Cp1252
Language: de
Country: DE
--></g></svg>