<?xml version="1.0" encoding="UTF-8" standalone="no"?><svg xmlns="http://www.w3.org/2000/svg" xmlns:xlink="http://www.w3.org/1999/xlink" contentScriptType="application/ecmascript" contentStyleType="text/css" height="151px" preserveAspectRatio="none" style="width:441px;height:151px;background:#FFFFFF;" version="1.1" viewBox="0 0 441 151" width="441px" zoomAndPan="magnify"><defs/><g><rect fill="#FEFECE" height="21.6094" rx="5" ry="5" style="stroke:#FEFECE;stroke-width:1.5;" width="195" x="10" y="64"/><text fill="#000000" font-family="sans-serif" font-size="14" lengthAdjust="spacing" textLength="163" x="15" y="80.5332">AusprägungsÜbersetzung</text><text fill="#000000" font-family="sans-serif" font-size="14" lengthAdjust="spacing" textLength="0" x="200" y="80.5332"/><line style="stroke:#A80036;stroke-width:1.0;" x1="183" x2="183" y1="64" y2="85.6094"/><rect fill="none" height="21.6094" rx="5" ry="5" style="stroke:#A80036;stroke-width:1.5;" width="195" x="10" y="64"/><rect fill="#FEFECE" height="129.6563" rx="5" ry="5" style="stroke:#FEFECE;stroke-width:1.5;" width="187" x="242" y="10"/><text fill="#000000" font-family="sans-serif" font-size="14" lengthAdjust="spacing" textLength="116" x="247" y="26.5332">Sachmerkmalcode</text><text fill="#000000" font-family="sans-serif" font-size="14" lengthAdjust="spacing" textLength="50" x="373" y="26.5332">Code10</text><line style="stroke:#A80036;stroke-width:1.0;" x1="368" x2="368" y1="10" y2="31.6094"/><line style="stroke:#A80036;stroke-width:1.0;" x1="242" x2="429" y1="31.6094" y2="31.6094"/><text fill="#000000" font-family="sans-serif" font-size="14" lengthAdjust="spacing" textLength="77" x="247" y="48.1426">Ausprägung</text><text fill="#000000" font-family="sans-serif" font-size="14" lengthAdjust="spacing" textLength="50" x="373" y="48.1426">Code20</text><line style="stroke:#A80036;stroke-width:1.0;" x1="368" x2="368" y1="31.6094" y2="53.2188"/><line style="stroke:#A80036;stroke-width:1.0;" x1="242" x2="429" y1="53.2188" y2="53.2188"/><text fill="#000000" font-family="sans-serif" font-size="14" lengthAdjust="spacing" textLength="76" x="247" y="69.752">Sprachcode</text><text fill="#000000" font-family="sans-serif" font-size="14" lengthAdjust="spacing" textLength="50" x="373" y="69.752">Code10</text><line style="stroke:#A80036;stroke-width:1.0;" x1="368" x2="368" y1="53.2188" y2="74.8281"/><line style="stroke:#A80036;stroke-width:1.0;" x1="242" x2="429" y1="74.8281" y2="74.8281"/><text fill="#000000" font-family="sans-serif" font-size="14" lengthAdjust="spacing" textLength="87" x="247" y="91.3613">Beschreibung</text><text fill="#000000" font-family="sans-serif" font-size="14" lengthAdjust="spacing" textLength="51" x="373" y="91.3613">Text100</text><line style="stroke:#A80036;stroke-width:1.0;" x1="368" x2="368" y1="74.8281" y2="96.4375"/><line style="stroke:#A80036;stroke-width:1.0;" x1="242" x2="429" y1="96.4375" y2="96.4375"/><text fill="#000000" font-family="sans-serif" font-size="14" lengthAdjust="spacing" textLength="83" x="247" y="112.9707">Geändert am</text><text fill="#000000" font-family="sans-serif" font-size="14" lengthAdjust="spacing" textLength="30" x="373" y="112.9707">Date</text><line style="stroke:#A80036;stroke-width:1.0;" x1="368" x2="368" y1="96.4375" y2="118.0469"/><line style="stroke:#A80036;stroke-width:1.0;" x1="242" x2="429" y1="118.0469" y2="118.0469"/><text fill="#000000" font-family="sans-serif" font-size="14" lengthAdjust="spacing" textLength="87" x="247" y="134.5801">Geändert von</text><text fill="#000000" font-family="sans-serif" font-size="14" lengthAdjust="spacing" textLength="50" x="373" y="134.5801">Code50</text><line style="stroke:#A80036;stroke-width:1.0;" x1="368" x2="368" y1="118.0469" y2="139.6563"/><rect fill="none" height="129.6563" rx="5" ry="5" style="stroke:#A80036;stroke-width:1.5;" width="187" x="242" y="10"/><path d="M193,75 L206,75 C215.2776,75 224.9306,75 234.5945,75 " fill="none" style="stroke:#A80036;stroke-width:1.0;stroke-dasharray:3.0,3.0;"/><path d="M234.5945,78.0983 L236.9182,75 L234.5945,71.9017 L242.3401,75 L234.5945,78.0983 " fill="#A80036" style="stroke:#A80036;stroke-width:1.0;"/><ellipse cx="193" cy="75" fill="#A80036" rx="3" ry="3" style="stroke:#A80036;stroke-width:1.0;stroke-dasharray:3.0,3.0;"/><!--MD5=[5150ad41469af088fd1b5077c059f424]
@startjson
{
  "AusprägungsÜbersetzung": {
    "Sachmerkmalcode":"Code10",
    "Ausprägung":"Code20",
    "Sprachcode":"Code10",
    "Beschreibung":"Text100",
    "Geändert am":"Date",
    "Geändert von":"Code50"
  }
}
@endjson

PlantUML version 1.2021.7(Sun May 23 14:40:07 CEST 2021)
(GPL source distribution)
Java Runtime: OpenJDK Runtime Environment
JVM: Dynamic Code Evolution 64-Bit Server VM
Default Encoding: Cp1252
Language: de
Country: DE
--></g></svg>