<?xml version="1.0" encoding="UTF-8" standalone="no"?><svg xmlns="http://www.w3.org/2000/svg" xmlns:xlink="http://www.w3.org/1999/xlink" contentScriptType="application/ecmascript" contentStyleType="text/css" height="324px" preserveAspectRatio="none" style="width:404px;height:324px;background:#FFFFFF;" version="1.1" viewBox="0 0 404 324" width="404px" zoomAndPan="magnify"><defs/><g><rect fill="#FEFECE" height="21.6094" rx="5" ry="5" style="stroke:#FEFECE;stroke-width:1.5;" width="142" x="10" y="150.5"/><text fill="#000000" font-family="sans-serif" font-size="14" lengthAdjust="spacing" textLength="110" x="15" y="167.0332">GlobaleAusprPos</text><text fill="#000000" font-family="sans-serif" font-size="14" lengthAdjust="spacing" textLength="0" x="147" y="167.0332"/><line style="stroke:#A80036;stroke-width:1.0;" x1="130" x2="130" y1="150.5" y2="172.1094"/><rect fill="none" height="21.6094" rx="5" ry="5" style="stroke:#A80036;stroke-width:1.5;" width="142" x="10" y="150.5"/><rect fill="#FEFECE" height="302.5313" rx="5" ry="5" style="stroke:#FEFECE;stroke-width:1.5;" width="203" x="189" y="10"/><text fill="#000000" font-family="sans-serif" font-size="14" lengthAdjust="spacing" textLength="116" x="194" y="26.5332">Sachmerkmalcode</text><text fill="#000000" font-family="sans-serif" font-size="14" lengthAdjust="spacing" textLength="50" x="328" y="26.5332">Code10</text><line style="stroke:#A80036;stroke-width:1.0;" x1="323" x2="323" y1="10" y2="31.6094"/><line style="stroke:#A80036;stroke-width:1.0;" x1="189" x2="392" y1="31.6094" y2="31.6094"/><text fill="#000000" font-family="sans-serif" font-size="14" lengthAdjust="spacing" textLength="77" x="194" y="48.1426">Ausprägung</text><text fill="#000000" font-family="sans-serif" font-size="14" lengthAdjust="spacing" textLength="50" x="328" y="48.1426">Code20</text><line style="stroke:#A80036;stroke-width:1.0;" x1="323" x2="323" y1="31.6094" y2="53.2188"/><line style="stroke:#A80036;stroke-width:1.0;" x1="189" x2="392" y1="53.2188" y2="53.2188"/><text fill="#000000" font-family="sans-serif" font-size="14" lengthAdjust="spacing" textLength="83" x="194" y="69.752">Geändert am</text><text fill="#000000" font-family="sans-serif" font-size="14" lengthAdjust="spacing" textLength="30" x="328" y="69.752">Date</text><line style="stroke:#A80036;stroke-width:1.0;" x1="323" x2="323" y1="53.2188" y2="74.8281"/><line style="stroke:#A80036;stroke-width:1.0;" x1="189" x2="392" y1="74.8281" y2="74.8281"/><text fill="#000000" font-family="sans-serif" font-size="14" lengthAdjust="spacing" textLength="87" x="194" y="91.3613">Geändert von</text><text fill="#000000" font-family="sans-serif" font-size="14" lengthAdjust="spacing" textLength="50" x="328" y="91.3613">Code50</text><line style="stroke:#A80036;stroke-width:1.0;" x1="323" x2="323" y1="74.8281" y2="96.4375"/><line style="stroke:#A80036;stroke-width:1.0;" x1="189" x2="392" y1="96.4375" y2="96.4375"/><text fill="#000000" font-family="sans-serif" font-size="14" lengthAdjust="spacing" textLength="46" x="194" y="112.9707">Lfd. Nr.</text><text fill="#000000" font-family="sans-serif" font-size="14" lengthAdjust="spacing" textLength="44" x="328" y="112.9707">Integer</text><line style="stroke:#A80036;stroke-width:1.0;" x1="323" x2="323" y1="96.4375" y2="118.0469"/><line style="stroke:#A80036;stroke-width:1.0;" x1="189" x2="392" y1="118.0469" y2="118.0469"/><text fill="#000000" font-family="sans-serif" font-size="14" lengthAdjust="spacing" textLength="87" x="194" y="134.5801">Beschreibung</text><text fill="#000000" font-family="sans-serif" font-size="14" lengthAdjust="spacing" textLength="51" x="328" y="134.5801">Text100</text><line style="stroke:#A80036;stroke-width:1.0;" x1="323" x2="323" y1="118.0469" y2="139.6563"/><line style="stroke:#A80036;stroke-width:1.0;" x1="189" x2="392" y1="139.6563" y2="139.6563"/><text fill="#000000" font-family="sans-serif" font-size="14" lengthAdjust="spacing" textLength="53" x="194" y="156.1895">Drucken</text><text fill="#000000" font-family="sans-serif" font-size="14" lengthAdjust="spacing" textLength="52" x="328" y="156.1895">Boolean</text><line style="stroke:#A80036;stroke-width:1.0;" x1="323" x2="323" y1="139.6563" y2="161.2656"/><line style="stroke:#A80036;stroke-width:1.0;" x1="189" x2="392" y1="161.2656" y2="161.2656"/><text fill="#000000" font-family="sans-serif" font-size="14" lengthAdjust="spacing" textLength="23" x="194" y="177.7988">Bild</text><text fill="#000000" font-family="sans-serif" font-size="14" lengthAdjust="spacing" textLength="59" x="328" y="177.7988">MediaSet</text><line style="stroke:#A80036;stroke-width:1.0;" x1="323" x2="323" y1="161.2656" y2="182.875"/><line style="stroke:#A80036;stroke-width:1.0;" x1="189" x2="392" y1="182.875" y2="182.875"/><text fill="#000000" font-family="sans-serif" font-size="14" lengthAdjust="spacing" textLength="92" x="194" y="199.4082">Nicht Plausibel</text><text fill="#000000" font-family="sans-serif" font-size="14" lengthAdjust="spacing" textLength="52" x="328" y="199.4082">Boolean</text><line style="stroke:#A80036;stroke-width:1.0;" x1="323" x2="323" y1="182.875" y2="204.4844"/><line style="stroke:#A80036;stroke-width:1.0;" x1="189" x2="392" y1="204.4844" y2="204.4844"/><text fill="#000000" font-family="sans-serif" font-size="14" lengthAdjust="spacing" textLength="73" x="194" y="221.0176">Wertenfilter</text><text fill="#000000" font-family="sans-serif" font-size="14" lengthAdjust="spacing" textLength="52" x="328" y="221.0176">Boolean</text><line style="stroke:#A80036;stroke-width:1.0;" x1="323" x2="323" y1="204.4844" y2="226.0938"/><line style="stroke:#A80036;stroke-width:1.0;" x1="189" x2="392" y1="226.0938" y2="226.0938"/><text fill="#000000" font-family="sans-serif" font-size="14" lengthAdjust="spacing" textLength="124" x="194" y="242.627">Nummerischer Wert</text><text fill="#000000" font-family="sans-serif" font-size="14" lengthAdjust="spacing" textLength="50" x="328" y="242.627">Decimal</text><line style="stroke:#A80036;stroke-width:1.0;" x1="323" x2="323" y1="226.0938" y2="247.7031"/><line style="stroke:#A80036;stroke-width:1.0;" x1="189" x2="392" y1="247.7031" y2="247.7031"/><text fill="#000000" font-family="sans-serif" font-size="14" lengthAdjust="spacing" textLength="115" x="194" y="264.2363">Pulksortierpriorität</text><text fill="#000000" font-family="sans-serif" font-size="14" lengthAdjust="spacing" textLength="44" x="328" y="264.2363">Integer</text><line style="stroke:#A80036;stroke-width:1.0;" x1="323" x2="323" y1="247.7031" y2="269.3125"/><line style="stroke:#A80036;stroke-width:1.0;" x1="189" x2="392" y1="269.3125" y2="269.3125"/><text fill="#000000" font-family="sans-serif" font-size="14" lengthAdjust="spacing" textLength="59" x="194" y="285.8457">Gültig bis</text><text fill="#000000" font-family="sans-serif" font-size="14" lengthAdjust="spacing" textLength="30" x="328" y="285.8457">Date</text><line style="stroke:#A80036;stroke-width:1.0;" x1="323" x2="323" y1="269.3125" y2="290.9219"/><line style="stroke:#A80036;stroke-width:1.0;" x1="189" x2="392" y1="290.9219" y2="290.9219"/><text fill="#000000" font-family="sans-serif" font-size="14" lengthAdjust="spacing" textLength="64" x="194" y="307.4551">Gültig von</text><text fill="#000000" font-family="sans-serif" font-size="14" lengthAdjust="spacing" textLength="30" x="328" y="307.4551">Date</text><line style="stroke:#A80036;stroke-width:1.0;" x1="323" x2="323" y1="290.9219" y2="312.5313"/><rect fill="none" height="302.5313" rx="5" ry="5" style="stroke:#A80036;stroke-width:1.5;" width="203" x="189" y="10"/><path d="M140,161.5 L153,161.5 C162.29,161.5 171.9343,161.5 181.6086,161.5 " fill="none" style="stroke:#A80036;stroke-width:1.0;stroke-dasharray:3.0,3.0;"/><path d="M181.6086,164.6035 L183.9362,161.5 L181.6086,158.3965 L189.3674,161.5 L181.6086,164.6035 " fill="#A80036" style="stroke:#A80036;stroke-width:1.0;"/><ellipse cx="140" cy="161.5" fill="#A80036" rx="3" ry="3" style="stroke:#A80036;stroke-width:1.0;stroke-dasharray:3.0,3.0;"/><!--MD5=[060ce69abb85a72976aecf1299a8cde3]
@startjson
{
  "GlobaleAusprPos": {
    "Sachmerkmalcode":"Code10",
    "Ausprägung":"Code20",
    "Geändert am":"Date",
    "Geändert von":"Code50",
    "Lfd. Nr.":"Integer",
    "Beschreibung":"Text100",
    "Drucken":"Boolean",
    "Bild":"MediaSet",
    "Nicht Plausibel":"Boolean",
    "Wertenfilter":"Boolean",
    "Nummerischer Wert":"Decimal",
    "Pulksortierpriorität":"Integer",
    "Gültig bis":"Date",
    "Gültig von":"Date"
  }
}
@endjson

PlantUML version 1.2021.7(Sun May 23 14:40:07 CEST 2021)
(GPL source distribution)
Java Runtime: OpenJDK Runtime Environment
JVM: Dynamic Code Evolution 64-Bit Server VM
Default Encoding: Cp1252
Language: de
Country: DE
--></g></svg>