<?xml version="1.0" encoding="UTF-8" standalone="no"?><svg xmlns="http://www.w3.org/2000/svg" xmlns:xlink="http://www.w3.org/1999/xlink" contentScriptType="application/ecmascript" contentStyleType="text/css" height="130px" preserveAspectRatio="none" style="width:717px;height:130px;background:#FFFFFF;" version="1.1" viewBox="0 0 717 130" width="717px" zoomAndPan="magnify"><defs/><g><rect fill="#FEFECE" height="21.6094" rx="5" ry="5" style="stroke:#FEFECE;stroke-width:1.5;" width="168" x="10" y="53"/><text fill="#000000" font-family="sans-serif" font-size="14" lengthAdjust="spacing" textLength="136" x="15" y="69.5332">KlassenEntscheidung</text><text fill="#000000" font-family="sans-serif" font-size="14" lengthAdjust="spacing" textLength="0" x="173" y="69.5332"/><line style="stroke:#A80036;stroke-width:1.0;" x1="156" x2="156" y1="53" y2="74.6094"/><rect fill="none" height="21.6094" rx="5" ry="5" style="stroke:#A80036;stroke-width:1.5;" width="168" x="10" y="53"/><rect fill="#FEFECE" height="108.0469" rx="5" ry="5" style="stroke:#FEFECE;stroke-width:1.5;" width="257" x="215" y="10"/><text fill="#000000" font-family="sans-serif" font-size="14" lengthAdjust="spacing" textLength="81" x="220" y="26.5332">Klassencode</text><text fill="#000000" font-family="sans-serif" font-size="14" lengthAdjust="spacing" textLength="50" x="417" y="26.5332">Code10</text><line style="stroke:#A80036;stroke-width:1.0;" x1="412" x2="412" y1="10" y2="31.6094"/><line style="stroke:#A80036;stroke-width:1.0;" x1="215" x2="472" y1="31.6094" y2="31.6094"/><text fill="#000000" font-family="sans-serif" font-size="14" lengthAdjust="spacing" textLength="62" x="220" y="48.1426">SM-Lfdnr.</text><text fill="#000000" font-family="sans-serif" font-size="14" lengthAdjust="spacing" textLength="44" x="417" y="48.1426">Integer</text><line style="stroke:#A80036;stroke-width:1.0;" x1="412" x2="412" y1="31.6094" y2="53.2188"/><line style="stroke:#A80036;stroke-width:1.0;" x1="215" x2="472" y1="53.2188" y2="53.2188"/><text fill="#000000" font-family="sans-serif" font-size="14" lengthAdjust="spacing" textLength="18" x="220" y="69.752">Art</text><text fill="#000000" font-family="sans-serif" font-size="14" lengthAdjust="spacing" textLength="0" x="429" y="69.752"/><line style="stroke:#A80036;stroke-width:1.0;" x1="412" x2="412" y1="53.2188" y2="74.8281"/><line style="stroke:#A80036;stroke-width:1.0;" x1="215" x2="472" y1="74.8281" y2="74.8281"/><text fill="#000000" font-family="sans-serif" font-size="14" lengthAdjust="spacing" textLength="55" x="220" y="91.3613">Zeilennr.</text><text fill="#000000" font-family="sans-serif" font-size="14" lengthAdjust="spacing" textLength="44" x="417" y="91.3613">Integer</text><line style="stroke:#A80036;stroke-width:1.0;" x1="412" x2="412" y1="74.8281" y2="96.4375"/><line style="stroke:#A80036;stroke-width:1.0;" x1="215" x2="472" y1="96.4375" y2="96.4375"/><text fill="#000000" font-family="sans-serif" font-size="14" lengthAdjust="spacing" textLength="187" x="220" y="112.9707">Entscheidung Definition Code</text><text fill="#000000" font-family="sans-serif" font-size="14" lengthAdjust="spacing" textLength="50" x="417" y="112.9707">Code20</text><line style="stroke:#A80036;stroke-width:1.0;" x1="412" x2="412" y1="96.4375" y2="118.0469"/><rect fill="none" height="108.0469" rx="5" ry="5" style="stroke:#A80036;stroke-width:1.5;" width="257" x="215" y="10"/><rect fill="#FEFECE" height="21.6094" rx="5" ry="5" style="stroke:#FEFECE;stroke-width:1.5;" width="74" x="509" y="52"/><text fill="#000000" font-family="sans-serif" font-size="14" lengthAdjust="spacing" textLength="42" x="514" y="68.5332">Option</text><text fill="#000000" font-family="sans-serif" font-size="14" lengthAdjust="spacing" textLength="0" x="578" y="68.5332"/><line style="stroke:#A80036;stroke-width:1.0;" x1="561" x2="561" y1="52" y2="73.6094"/><rect fill="none" height="21.6094" rx="5" ry="5" style="stroke:#A80036;stroke-width:1.5;" width="74" x="509" y="52"/><rect fill="#FEFECE" height="21.6094" rx="5" ry="5" style="stroke:#FEFECE;stroke-width:1.5;" width="85" x="620" y="52"/><text fill="#000000" font-family="sans-serif" font-size="14" lengthAdjust="spacing" textLength="75" x="625" y="68.5332">Ausblenden</text><rect fill="none" height="21.6094" rx="5" ry="5" style="stroke:#A80036;stroke-width:1.5;" width="85" x="620" y="52"/><path d="M571,63 L584,63 C593.2961,63 603.2155,63 612.7553,63 " fill="none" style="stroke:#A80036;stroke-width:1.0;stroke-dasharray:3.0,3.0;"/><path d="M612.7553,66.0201 L615.0204,63 L612.7553,59.9799 L620.3056,63 L612.7553,66.0201 " fill="#A80036" style="stroke:#A80036;stroke-width:1.0;"/><ellipse cx="571" cy="63" fill="#A80036" rx="3" ry="3" style="stroke:#A80036;stroke-width:1.0;stroke-dasharray:3.0,3.0;"/><path d="M460,63 L473,63 C482.2434,63 492.1498,63 501.578,63 " fill="none" style="stroke:#A80036;stroke-width:1.0;stroke-dasharray:3.0,3.0;"/><path d="M501.578,66.1129 L503.9127,63 L501.578,59.8871 L509.3603,63 L501.578,66.1129 " fill="#A80036" style="stroke:#A80036;stroke-width:1.0;"/><ellipse cx="460" cy="63" fill="#A80036" rx="3" ry="3" style="stroke:#A80036;stroke-width:1.0;stroke-dasharray:3.0,3.0;"/><path d="M166,64 L179,64 C188.3235,64 197.9452,64 207.6363,64 " fill="none" style="stroke:#A80036;stroke-width:1.0;stroke-dasharray:3.0,3.0;"/><path d="M207.6363,67.113 L209.971,64 L207.6363,60.887 L215.4188,64 L207.6363,67.113 " fill="#A80036" style="stroke:#A80036;stroke-width:1.0;"/><ellipse cx="166" cy="64" fill="#A80036" rx="3" ry="3" style="stroke:#A80036;stroke-width:1.0;stroke-dasharray:3.0,3.0;"/><!--MD5=[98850bc64a8b58d0763d7ceaff905c9d]
@startjson
{
  "KlassenEntscheidung": {
    "Klassencode": "Code10",
    "SM-Lfdnr.": "Integer",
    "Art": {
      "Option": [
        "Ausblenden"
      ]
    },
    "Zeilennr.": "Integer",
    "Entscheidung Definition Code": "Code20"
  }
}
@endjson

PlantUML version 1.2021.7(Sun May 23 14:40:07 CEST 2021)
(GPL source distribution)
Java Runtime: OpenJDK Runtime Environment
JVM: Dynamic Code Evolution 64-Bit Server VM
Default Encoding: Cp1252
Language: de
Country: DE
--></g></svg>