<?xml version="1.0" encoding="UTF-8" standalone="no"?><svg xmlns="http://www.w3.org/2000/svg" xmlns:xlink="http://www.w3.org/1999/xlink" contentScriptType="application/ecmascript" contentStyleType="text/css" height="681px" preserveAspectRatio="none" style="width:839px;height:681px;background:#FFFFFF;" version="1.1" viewBox="0 0 839 681" width="839px" zoomAndPan="magnify"><defs/><g><rect fill="#FEFECE" height="21.6094" rx="5" ry="5" style="stroke:#FEFECE;stroke-width:1.5;" width="173" x="10" y="334.5"/><text fill="#000000" font-family="sans-serif" font-size="14" lengthAdjust="spacing" textLength="141" x="15" y="351.0332">Klassensachmerkmale</text><text fill="#000000" font-family="sans-serif" font-size="14" lengthAdjust="spacing" textLength="0" x="178" y="351.0332"/><line style="stroke:#A80036;stroke-width:1.0;" x1="161" x2="161" y1="334.5" y2="356.1094"/><rect fill="none" height="21.6094" rx="5" ry="5" style="stroke:#A80036;stroke-width:1.5;" width="173" x="10" y="334.5"/><rect fill="#FEFECE" height="648.2813" rx="5" ry="5" style="stroke:#FEFECE;stroke-width:1.5;" width="291" x="220" y="21.5"/><text fill="#000000" font-family="sans-serif" font-size="14" lengthAdjust="spacing" textLength="67" x="225" y="38.0332">Klassenart</text><text fill="#000000" font-family="sans-serif" font-size="14" lengthAdjust="spacing" textLength="0" x="466" y="38.0332"/><line style="stroke:#A80036;stroke-width:1.0;" x1="449" x2="449" y1="21.5" y2="43.1094"/><line style="stroke:#A80036;stroke-width:1.0;" x1="220" x2="511" y1="43.1094" y2="43.1094"/><text fill="#000000" font-family="sans-serif" font-size="14" lengthAdjust="spacing" textLength="81" x="225" y="59.6426">Klassencode</text><text fill="#000000" font-family="sans-serif" font-size="14" lengthAdjust="spacing" textLength="50" x="454" y="59.6426">Code10</text><line style="stroke:#A80036;stroke-width:1.0;" x1="449" x2="449" y1="43.1094" y2="64.7188"/><line style="stroke:#A80036;stroke-width:1.0;" x1="220" x2="511" y1="64.7188" y2="64.7188"/><text fill="#000000" font-family="sans-serif" font-size="14" lengthAdjust="spacing" textLength="46" x="225" y="81.252">Lfd. Nr.</text><text fill="#000000" font-family="sans-serif" font-size="14" lengthAdjust="spacing" textLength="44" x="454" y="81.252">Integer</text><line style="stroke:#A80036;stroke-width:1.0;" x1="449" x2="449" y1="64.7188" y2="86.3281"/><line style="stroke:#A80036;stroke-width:1.0;" x1="220" x2="511" y1="86.3281" y2="86.3281"/><text fill="#000000" font-family="sans-serif" font-size="14" lengthAdjust="spacing" textLength="116" x="225" y="102.8613">Sachmerkmalcode</text><text fill="#000000" font-family="sans-serif" font-size="14" lengthAdjust="spacing" textLength="50" x="454" y="102.8613">Code10</text><line style="stroke:#A80036;stroke-width:1.0;" x1="449" x2="449" y1="86.3281" y2="107.9375"/><line style="stroke:#A80036;stroke-width:1.0;" x1="220" x2="511" y1="107.9375" y2="107.9375"/><text fill="#000000" font-family="sans-serif" font-size="14" lengthAdjust="spacing" textLength="65" x="225" y="124.4707">Muß/Kann</text><text fill="#000000" font-family="sans-serif" font-size="14" lengthAdjust="spacing" textLength="0" x="466" y="124.4707"/><line style="stroke:#A80036;stroke-width:1.0;" x1="449" x2="449" y1="107.9375" y2="129.5469"/><line style="stroke:#A80036;stroke-width:1.0;" x1="220" x2="511" y1="129.5469" y2="129.5469"/><text fill="#000000" font-family="sans-serif" font-size="14" lengthAdjust="spacing" textLength="126" x="225" y="146.0801">Eindeutiges Suchen</text><text fill="#000000" font-family="sans-serif" font-size="14" lengthAdjust="spacing" textLength="52" x="454" y="146.0801">Boolean</text><line style="stroke:#A80036;stroke-width:1.0;" x1="449" x2="449" y1="129.5469" y2="151.1563"/><line style="stroke:#A80036;stroke-width:1.0;" x1="220" x2="511" y1="151.1563" y2="151.1563"/><text fill="#000000" font-family="sans-serif" font-size="14" lengthAdjust="spacing" textLength="87" x="225" y="167.6895">Prüfverfahren</text><text fill="#000000" font-family="sans-serif" font-size="14" lengthAdjust="spacing" textLength="0" x="466" y="167.6895"/><line style="stroke:#A80036;stroke-width:1.0;" x1="449" x2="449" y1="151.1563" y2="172.7656"/><line style="stroke:#A80036;stroke-width:1.0;" x1="220" x2="511" y1="172.7656" y2="172.7656"/><text fill="#000000" font-family="sans-serif" font-size="14" lengthAdjust="spacing" textLength="50" x="225" y="189.2988">Prüfung</text><text fill="#000000" font-family="sans-serif" font-size="14" lengthAdjust="spacing" textLength="50" x="454" y="189.2988">Code20</text><line style="stroke:#A80036;stroke-width:1.0;" x1="449" x2="449" y1="172.7656" y2="194.375"/><line style="stroke:#A80036;stroke-width:1.0;" x1="220" x2="511" y1="194.375" y2="194.375"/><text fill="#000000" font-family="sans-serif" font-size="14" lengthAdjust="spacing" textLength="83" x="225" y="210.9082">Geändert am</text><text fill="#000000" font-family="sans-serif" font-size="14" lengthAdjust="spacing" textLength="30" x="454" y="210.9082">Date</text><line style="stroke:#A80036;stroke-width:1.0;" x1="449" x2="449" y1="194.375" y2="215.9844"/><line style="stroke:#A80036;stroke-width:1.0;" x1="220" x2="511" y1="215.9844" y2="215.9844"/><text fill="#000000" font-family="sans-serif" font-size="14" lengthAdjust="spacing" textLength="87" x="225" y="232.5176">Geändert von</text><text fill="#000000" font-family="sans-serif" font-size="14" lengthAdjust="spacing" textLength="50" x="454" y="232.5176">Code50</text><line style="stroke:#A80036;stroke-width:1.0;" x1="449" x2="449" y1="215.9844" y2="237.5938"/><line style="stroke:#A80036;stroke-width:1.0;" x1="220" x2="511" y1="237.5938" y2="237.5938"/><text fill="#000000" font-family="sans-serif" font-size="14" lengthAdjust="spacing" textLength="40" x="225" y="254.127">Länge</text><text fill="#000000" font-family="sans-serif" font-size="14" lengthAdjust="spacing" textLength="44" x="454" y="254.127">Integer</text><line style="stroke:#A80036;stroke-width:1.0;" x1="449" x2="449" y1="237.5938" y2="259.2031"/><line style="stroke:#A80036;stroke-width:1.0;" x1="220" x2="511" y1="259.2031" y2="259.2031"/><text fill="#000000" font-family="sans-serif" font-size="14" lengthAdjust="spacing" textLength="90" x="225" y="275.7363">Dezimalstellen</text><text fill="#000000" font-family="sans-serif" font-size="14" lengthAdjust="spacing" textLength="44" x="454" y="275.7363">Integer</text><line style="stroke:#A80036;stroke-width:1.0;" x1="449" x2="449" y1="259.2031" y2="280.8125"/><line style="stroke:#A80036;stroke-width:1.0;" x1="220" x2="511" y1="280.8125" y2="280.8125"/><text fill="#000000" font-family="sans-serif" font-size="14" lengthAdjust="spacing" textLength="123" x="225" y="297.3457">Ausprägung diskret</text><text fill="#000000" font-family="sans-serif" font-size="14" lengthAdjust="spacing" textLength="52" x="454" y="297.3457">Boolean</text><line style="stroke:#A80036;stroke-width:1.0;" x1="449" x2="449" y1="280.8125" y2="302.4219"/><line style="stroke:#A80036;stroke-width:1.0;" x1="220" x2="511" y1="302.4219" y2="302.4219"/><text fill="#000000" font-family="sans-serif" font-size="14" lengthAdjust="spacing" textLength="176" x="225" y="318.9551">Abhängig von Sachmerkmal</text><text fill="#000000" font-family="sans-serif" font-size="14" lengthAdjust="spacing" textLength="50" x="454" y="318.9551">Code10</text><line style="stroke:#A80036;stroke-width:1.0;" x1="449" x2="449" y1="302.4219" y2="324.0313"/><line style="stroke:#A80036;stroke-width:1.0;" x1="220" x2="511" y1="324.0313" y2="324.0313"/><text fill="#000000" font-family="sans-serif" font-size="14" lengthAdjust="spacing" textLength="83" x="225" y="340.5645">Suchrelevant</text><text fill="#000000" font-family="sans-serif" font-size="14" lengthAdjust="spacing" textLength="52" x="454" y="340.5645">Boolean</text><line style="stroke:#A80036;stroke-width:1.0;" x1="449" x2="449" y1="324.0313" y2="345.6406"/><line style="stroke:#A80036;stroke-width:1.0;" x1="220" x2="511" y1="345.6406" y2="345.6406"/><text fill="#000000" font-family="sans-serif" font-size="14" lengthAdjust="spacing" textLength="216" x="225" y="362.1738">Druck abhängig von Sachmerkmal</text><text fill="#000000" font-family="sans-serif" font-size="14" lengthAdjust="spacing" textLength="50" x="454" y="362.1738">Code10</text><line style="stroke:#A80036;stroke-width:1.0;" x1="449" x2="449" y1="345.6406" y2="367.25"/><line style="stroke:#A80036;stroke-width:1.0;" x1="220" x2="511" y1="367.25" y2="367.25"/><text fill="#000000" font-family="sans-serif" font-size="14" lengthAdjust="spacing" textLength="127" x="225" y="383.7832">Kurzeingabe erlaubt</text><text fill="#000000" font-family="sans-serif" font-size="14" lengthAdjust="spacing" textLength="52" x="454" y="383.7832">Boolean</text><line style="stroke:#A80036;stroke-width:1.0;" x1="449" x2="449" y1="367.25" y2="388.8594"/><line style="stroke:#A80036;stroke-width:1.0;" x1="220" x2="511" y1="388.8594" y2="388.8594"/><text fill="#000000" font-family="sans-serif" font-size="14" lengthAdjust="spacing" textLength="219" x="225" y="405.3926">Subvariante Lagerhaltung relevant</text><text fill="#000000" font-family="sans-serif" font-size="14" lengthAdjust="spacing" textLength="52" x="454" y="405.3926">Boolean</text><line style="stroke:#A80036;stroke-width:1.0;" x1="449" x2="449" y1="388.8594" y2="410.4688"/><line style="stroke:#A80036;stroke-width:1.0;" x1="220" x2="511" y1="410.4688" y2="410.4688"/><text fill="#000000" font-family="sans-serif" font-size="14" lengthAdjust="spacing" textLength="153" x="225" y="427.002">Ausprägung leer erlaubt</text><text fill="#000000" font-family="sans-serif" font-size="14" lengthAdjust="spacing" textLength="52" x="454" y="427.002">Boolean</text><line style="stroke:#A80036;stroke-width:1.0;" x1="449" x2="449" y1="410.4688" y2="432.0781"/><line style="stroke:#A80036;stroke-width:1.0;" x1="220" x2="511" y1="432.0781" y2="432.0781"/><text fill="#000000" font-family="sans-serif" font-size="14" lengthAdjust="spacing" textLength="185" x="225" y="448.6113">Subvariante Technik relevant</text><text fill="#000000" font-family="sans-serif" font-size="14" lengthAdjust="spacing" textLength="52" x="454" y="448.6113">Boolean</text><line style="stroke:#A80036;stroke-width:1.0;" x1="449" x2="449" y1="432.0781" y2="453.6875"/><line style="stroke:#A80036;stroke-width:1.0;" x1="220" x2="511" y1="453.6875" y2="453.6875"/><text fill="#000000" font-family="sans-serif" font-size="14" lengthAdjust="spacing" textLength="184" x="225" y="470.2207">Subvariante Verkauf relevant</text><text fill="#000000" font-family="sans-serif" font-size="14" lengthAdjust="spacing" textLength="52" x="454" y="470.2207">Boolean</text><line style="stroke:#A80036;stroke-width:1.0;" x1="449" x2="449" y1="453.6875" y2="475.2969"/><line style="stroke:#A80036;stroke-width:1.0;" x1="220" x2="511" y1="475.2969" y2="475.2969"/><text fill="#000000" font-family="sans-serif" font-size="14" lengthAdjust="spacing" textLength="203" x="225" y="491.8301">Subvariante Produktion relevant</text><text fill="#000000" font-family="sans-serif" font-size="14" lengthAdjust="spacing" textLength="52" x="454" y="491.8301">Boolean</text><line style="stroke:#A80036;stroke-width:1.0;" x1="449" x2="449" y1="475.2969" y2="496.9063"/><line style="stroke:#A80036;stroke-width:1.0;" x1="220" x2="511" y1="496.9063" y2="496.9063"/><text fill="#000000" font-family="sans-serif" font-size="14" lengthAdjust="spacing" textLength="158" x="225" y="513.4395">Subvariante Bild relevant</text><text fill="#000000" font-family="sans-serif" font-size="14" lengthAdjust="spacing" textLength="52" x="454" y="513.4395">Boolean</text><line style="stroke:#A80036;stroke-width:1.0;" x1="449" x2="449" y1="496.9063" y2="518.5156"/><line style="stroke:#A80036;stroke-width:1.0;" x1="220" x2="511" y1="518.5156" y2="518.5156"/><text fill="#000000" font-family="sans-serif" font-size="14" lengthAdjust="spacing" textLength="175" x="225" y="535.0488">Subvariante Export relevant</text><text fill="#000000" font-family="sans-serif" font-size="14" lengthAdjust="spacing" textLength="52" x="454" y="535.0488">Boolean</text><line style="stroke:#A80036;stroke-width:1.0;" x1="449" x2="449" y1="518.5156" y2="540.125"/><line style="stroke:#A80036;stroke-width:1.0;" x1="220" x2="511" y1="540.125" y2="540.125"/><text fill="#000000" font-family="sans-serif" font-size="14" lengthAdjust="spacing" textLength="148" x="225" y="556.6582">Autom. validieren F.u.R</text><text fill="#000000" font-family="sans-serif" font-size="14" lengthAdjust="spacing" textLength="52" x="454" y="556.6582">Boolean</text><line style="stroke:#A80036;stroke-width:1.0;" x1="449" x2="449" y1="540.125" y2="561.7344"/><line style="stroke:#A80036;stroke-width:1.0;" x1="220" x2="511" y1="561.7344" y2="561.7344"/><text fill="#000000" font-family="sans-serif" font-size="14" lengthAdjust="spacing" textLength="172" x="225" y="578.2676">Sachmerkmale Druck Code</text><text fill="#000000" font-family="sans-serif" font-size="14" lengthAdjust="spacing" textLength="50" x="454" y="578.2676">Code10</text><line style="stroke:#A80036;stroke-width:1.0;" x1="449" x2="449" y1="561.7344" y2="583.3438"/><line style="stroke:#A80036;stroke-width:1.0;" x1="220" x2="511" y1="583.3438" y2="583.3438"/><text fill="#000000" font-family="sans-serif" font-size="14" lengthAdjust="spacing" textLength="108" x="225" y="599.877">Druckreihenfolge</text><text fill="#000000" font-family="sans-serif" font-size="14" lengthAdjust="spacing" textLength="44" x="454" y="599.877">Integer</text><line style="stroke:#A80036;stroke-width:1.0;" x1="449" x2="449" y1="583.3438" y2="604.9531"/><line style="stroke:#A80036;stroke-width:1.0;" x1="220" x2="511" y1="604.9531" y2="604.9531"/><text fill="#000000" font-family="sans-serif" font-size="14" lengthAdjust="spacing" textLength="174" x="225" y="621.4863">Beschreibung Parameternr.</text><text fill="#000000" font-family="sans-serif" font-size="14" lengthAdjust="spacing" textLength="44" x="454" y="621.4863">Integer</text><line style="stroke:#A80036;stroke-width:1.0;" x1="449" x2="449" y1="604.9531" y2="626.5625"/><line style="stroke:#A80036;stroke-width:1.0;" x1="220" x2="511" y1="626.5625" y2="626.5625"/><text fill="#000000" font-family="sans-serif" font-size="14" lengthAdjust="spacing" textLength="135" x="225" y="643.0957">Variantenstring Präfix</text><text fill="#000000" font-family="sans-serif" font-size="14" lengthAdjust="spacing" textLength="50" x="454" y="643.0957">Code10</text><line style="stroke:#A80036;stroke-width:1.0;" x1="449" x2="449" y1="626.5625" y2="648.1719"/><line style="stroke:#A80036;stroke-width:1.0;" x1="220" x2="511" y1="648.1719" y2="648.1719"/><text fill="#000000" font-family="sans-serif" font-size="14" lengthAdjust="spacing" textLength="176" x="225" y="664.7051">Variantenstring Reihenfolge</text><text fill="#000000" font-family="sans-serif" font-size="14" lengthAdjust="spacing" textLength="44" x="454" y="664.7051">Integer</text><line style="stroke:#A80036;stroke-width:1.0;" x1="449" x2="449" y1="648.1719" y2="669.7813"/><rect fill="none" height="648.2813" rx="5" ry="5" style="stroke:#A80036;stroke-width:1.5;" width="291" x="220" y="21.5"/><rect fill="#FEFECE" height="21.6094" rx="5" ry="5" style="stroke:#FEFECE;stroke-width:1.5;" width="74" x="548" y="20.5"/><text fill="#000000" font-family="sans-serif" font-size="14" lengthAdjust="spacing" textLength="42" x="553" y="37.0332">Option</text><text fill="#000000" font-family="sans-serif" font-size="14" lengthAdjust="spacing" textLength="0" x="617" y="37.0332"/><line style="stroke:#A80036;stroke-width:1.0;" x1="600" x2="600" y1="20.5" y2="42.1094"/><rect fill="none" height="21.6094" rx="5" ry="5" style="stroke:#A80036;stroke-width:1.5;" width="74" x="548" y="20.5"/><rect fill="#FEFECE" height="43.2188" rx="5" ry="5" style="stroke:#FEFECE;stroke-width:1.5;" width="100" x="693" y="10"/><text fill="#000000" font-family="sans-serif" font-size="14" lengthAdjust="spacing" textLength="90" x="698" y="26.5332">Klassifizierung</text><line style="stroke:#A80036;stroke-width:1.0;" x1="693" x2="793" y1="31.6094" y2="31.6094"/><text fill="#000000" font-family="sans-serif" font-size="14" lengthAdjust="spacing" textLength="48" x="698" y="48.1426">Suchen</text><rect fill="none" height="43.2188" rx="5" ry="5" style="stroke:#A80036;stroke-width:1.5;" width="100" x="693" y="10"/><rect fill="#FEFECE" height="21.6094" rx="5" ry="5" style="stroke:#FEFECE;stroke-width:1.5;" width="74" x="548" y="103.5"/><text fill="#000000" font-family="sans-serif" font-size="14" lengthAdjust="spacing" textLength="42" x="553" y="120.0332">Option</text><text fill="#000000" font-family="sans-serif" font-size="14" lengthAdjust="spacing" textLength="0" x="617" y="120.0332"/><line style="stroke:#A80036;stroke-width:1.0;" x1="600" x2="600" y1="103.5" y2="125.1094"/><rect fill="none" height="21.6094" rx="5" ry="5" style="stroke:#A80036;stroke-width:1.5;" width="74" x="548" y="103.5"/><rect fill="#FEFECE" height="64.8281" rx="5" ry="5" style="stroke:#FEFECE;stroke-width:1.5;" width="168" x="659" y="78"/><text fill="#000000" font-family="sans-serif" font-size="14" lengthAdjust="spacing" textLength="31" x="664" y="94.5332">kann</text><line style="stroke:#A80036;stroke-width:1.0;" x1="659" x2="827" y1="99.6094" y2="99.6094"/><text fill="#000000" font-family="sans-serif" font-size="14" lengthAdjust="spacing" textLength="143" x="664" y="116.1426">muß für Klassifizierung</text><line style="stroke:#A80036;stroke-width:1.0;" x1="659" x2="827" y1="121.2188" y2="121.2188"/><text fill="#000000" font-family="sans-serif" font-size="14" lengthAdjust="spacing" textLength="158" x="664" y="137.752">muß für Variantensystem</text><rect fill="none" height="64.8281" rx="5" ry="5" style="stroke:#A80036;stroke-width:1.5;" width="168" x="659" y="78"/><rect fill="#FEFECE" height="21.6094" rx="5" ry="5" style="stroke:#FEFECE;stroke-width:1.5;" width="74" x="548" y="171.5"/><text fill="#000000" font-family="sans-serif" font-size="14" lengthAdjust="spacing" textLength="42" x="553" y="188.0332">Option</text><text fill="#000000" font-family="sans-serif" font-size="14" lengthAdjust="spacing" textLength="0" x="617" y="188.0332"/><line style="stroke:#A80036;stroke-width:1.0;" x1="600" x2="600" y1="171.5" y2="193.1094"/><rect fill="none" height="21.6094" rx="5" ry="5" style="stroke:#A80036;stroke-width:1.5;" width="74" x="548" y="171.5"/><rect fill="#FEFECE" height="86.4375" rx="5" ry="5" style="stroke:#FEFECE;stroke-width:1.5;" width="156" x="665" y="161.5"/><text fill="#000000" font-family="sans-serif" font-size="14" lengthAdjust="spacing" textLength="90" x="670" y="178.0332">Keine Prüfung</text><line style="stroke:#A80036;stroke-width:1.0;" x1="665" x2="821" y1="183.1094" y2="183.1094"/><text fill="#000000" font-family="sans-serif" font-size="14" lengthAdjust="spacing" textLength="146" x="670" y="199.6426">Globale Ausprägungen</text><line style="stroke:#A80036;stroke-width:1.0;" x1="665" x2="821" y1="204.7188" y2="204.7188"/><text fill="#000000" font-family="sans-serif" font-size="14" lengthAdjust="spacing" textLength="135" x="670" y="221.252">Entscheidungstabelle</text><line style="stroke:#A80036;stroke-width:1.0;" x1="665" x2="821" y1="226.3281" y2="226.3281"/><text fill="#000000" font-family="sans-serif" font-size="14" lengthAdjust="spacing" textLength="127" x="670" y="242.8613">Nur Klassensatzwert</text><rect fill="none" height="86.4375" rx="5" ry="5" style="stroke:#A80036;stroke-width:1.5;" width="156" x="665" y="161.5"/><path d="M610,31.5 L623,31.5 C643.4216,31.5 665.8062,31.5 685.625,31.5 " fill="none" style="stroke:#A80036;stroke-width:1.0;stroke-dasharray:3.0,3.0;"/><path d="M685.625,34.5985 L687.9488,31.5 L685.625,28.4015 L693.3712,31.5 L685.625,34.5985 " fill="#A80036" style="stroke:#A80036;stroke-width:1.0;"/><ellipse cx="610" cy="31.5" fill="#A80036" rx="3" ry="3" style="stroke:#A80036;stroke-width:1.0;stroke-dasharray:3.0,3.0;"/><path d="M499,31.5 L512,31.5 C521.2434,31.5 531.1498,31.5 540.578,31.5 " fill="none" style="stroke:#A80036;stroke-width:1.0;stroke-dasharray:3.0,3.0;"/><path d="M540.578,34.6129 L542.9127,31.5 L540.578,28.3871 L548.3603,31.5 L540.578,34.6129 " fill="#A80036" style="stroke:#A80036;stroke-width:1.0;"/><ellipse cx="499" cy="31.5" fill="#A80036" rx="3" ry="3" style="stroke:#A80036;stroke-width:1.0;stroke-dasharray:3.0,3.0;"/><path d="M610,114.5 L623,114.5 C632.2544,114.5 641.9097,114.3787 651.5456,114.1783 " fill="none" style="stroke:#A80036;stroke-width:1.0;stroke-dasharray:3.0,3.0;"/><path d="M651.6163,117.2646 L653.8602,114.1253 L651.4748,111.0921 L659.2612,114.0015 L651.6163,117.2646 " fill="#A80036" style="stroke:#A80036;stroke-width:1.0;"/><ellipse cx="610" cy="114.5" fill="#A80036" rx="3" ry="3" style="stroke:#A80036;stroke-width:1.0;stroke-dasharray:3.0,3.0;"/><path d="M499,118.5 L512,118.5 C521.3501,118.5 531.3681,118.1642 540.8822,117.6872 " fill="none" style="stroke:#A80036;stroke-width:1.0;stroke-dasharray:3.0,3.0;"/><path d="M541.0459,120.6871 L543.1321,117.5645 L540.7186,114.6874 L548.3819,117.2781 L541.0459,120.6871 " fill="#A80036" style="stroke:#A80036;stroke-width:1.0;"/><ellipse cx="499" cy="118.5" fill="#A80036" rx="3" ry="3" style="stroke:#A80036;stroke-width:1.0;stroke-dasharray:3.0,3.0;"/><path d="M610,182.5 L623,182.5 C634.3345,182.5 646.1753,183.4691 657.8106,185.0006 " fill="none" style="stroke:#A80036;stroke-width:1.0;stroke-dasharray:3.0,3.0;"/><path d="M657.3774,188.0442 L660.0933,185.3255 L658.2438,181.957 L665.4196,186.0836 L657.3774,188.0442 " fill="#A80036" style="stroke:#A80036;stroke-width:1.0;"/><ellipse cx="610" cy="182.5" fill="#A80036" rx="3" ry="3" style="stroke:#A80036;stroke-width:1.0;stroke-dasharray:3.0,3.0;"/><path d="M499,161.5 L512,161.5 C525.3478,161.5 539.5516,164.8246 551.8171,168.8282 " fill="none" style="stroke:#A80036;stroke-width:1.0;stroke-dasharray:3.0,3.0;"/><path d="M550.7943,171.7728 L554.0255,169.5953 L552.8398,165.8836 L559.1785,171.3851 L550.7943,171.7728 " fill="#A80036" style="stroke:#A80036;stroke-width:1.0;"/><ellipse cx="499" cy="161.5" fill="#A80036" rx="3" ry="3" style="stroke:#A80036;stroke-width:1.0;stroke-dasharray:3.0,3.0;"/><path d="M171,345.5 L184,345.5 C193.2982,345.5 202.8651,345.5 212.5143,345.5 " fill="none" style="stroke:#A80036;stroke-width:1.0;stroke-dasharray:3.0,3.0;"/><path d="M212.5143,348.601 L214.8401,345.5 L212.5143,342.399 L220.2669,345.5 L212.5143,348.601 " fill="#A80036" style="stroke:#A80036;stroke-width:1.0;"/><ellipse cx="171" cy="345.5" fill="#A80036" rx="3" ry="3" style="stroke:#A80036;stroke-width:1.0;stroke-dasharray:3.0,3.0;"/><!--MD5=[21056db12f7c4c6015f752982371d64a]
@startjson
{
  "Klassensachmerkmale": {
    "Klassenart": {
      "Option": [
        "Klassifizierung",
        "Suchen"
      ]
    },
    "Klassencode": "Code10",
    "Lfd. Nr.": "Integer",
    "Sachmerkmalcode": "Code10",
    "Muß/Kann": {
      "Option": [
        "kann",
        "muß für Klassifizierung",
        "muß für Variantensystem"
      ]
    },
    "Eindeutiges Suchen": "Boolean",
    "Prüfverfahren": {
      "Option": [
        "Keine Prüfung",
        "Globale Ausprägungen",
        "Entscheidungstabelle",
        "Nur Klassensatzwert"
      ]
    },
    "Prüfung": "Code20",
    "Geändert am": "Date",
    "Geändert von": "Code50",
    "Länge": "Integer",
    "Dezimalstellen": "Integer",
    "Ausprägung diskret": "Boolean",
    "Abhängig von Sachmerkmal": "Code10",
    "Suchrelevant": "Boolean",
    "Druck abhängig von Sachmerkmal": "Code10",
    "Kurzeingabe erlaubt": "Boolean",
    "Subvariante Lagerhaltung relevant": "Boolean",
    "Ausprägung leer erlaubt": "Boolean",
    "Subvariante Technik relevant": "Boolean",
    "Subvariante Verkauf relevant": "Boolean",
    "Subvariante Produktion relevant": "Boolean",
    "Subvariante Bild relevant": "Boolean",
    "Subvariante Export relevant": "Boolean",
    "Autom. validieren F.u.R": "Boolean",
    "Sachmerkmale Druck Code": "Code10",
    "Druckreihenfolge": "Integer",
    "Beschreibung Parameternr.": "Integer",
    "Variantenstring Präfix": "Code10",
    "Variantenstring Reihenfolge": "Integer"
  }
}
@endjson

PlantUML version 1.2021.7(Sun May 23 14:40:07 CEST 2021)
(GPL source distribution)
Java Runtime: OpenJDK Runtime Environment
JVM: Dynamic Code Evolution 64-Bit Server VM
Default Encoding: Cp1252
Language: de
Country: DE
--></g></svg>