<?xml version="1.0" encoding="UTF-8" standalone="no"?><svg xmlns="http://www.w3.org/2000/svg" xmlns:xlink="http://www.w3.org/1999/xlink" contentScriptType="application/ecmascript" contentStyleType="text/css" height="86px" preserveAspectRatio="none" style="width:450px;height:86px;background:#FFFFFF;" version="1.1" viewBox="0 0 450 86" width="450px" zoomAndPan="magnify"><defs/><g><rect fill="#FEFECE" height="21.6094" rx="5" ry="5" style="stroke:#FEFECE;stroke-width:1.5;" width="204" x="10" y="31.5"/><text fill="#000000" font-family="sans-serif" font-size="14" lengthAdjust="spacing" textLength="172" x="15" y="48.0332">SachmerkmaleÜbersetzung</text><text fill="#000000" font-family="sans-serif" font-size="14" lengthAdjust="spacing" textLength="0" x="209" y="48.0332"/><line style="stroke:#A80036;stroke-width:1.0;" x1="192" x2="192" y1="31.5" y2="53.1094"/><rect fill="none" height="21.6094" rx="5" ry="5" style="stroke:#A80036;stroke-width:1.5;" width="204" x="10" y="31.5"/><rect fill="#FEFECE" height="64.8281" rx="5" ry="5" style="stroke:#FEFECE;stroke-width:1.5;" width="187" x="251" y="10"/><text fill="#000000" font-family="sans-serif" font-size="14" lengthAdjust="spacing" textLength="116" x="256" y="26.5332">Sachmerkmalcode</text><text fill="#000000" font-family="sans-serif" font-size="14" lengthAdjust="spacing" textLength="50" x="382" y="26.5332">Code10</text><line style="stroke:#A80036;stroke-width:1.0;" x1="377" x2="377" y1="10" y2="31.6094"/><line style="stroke:#A80036;stroke-width:1.0;" x1="251" x2="438" y1="31.6094" y2="31.6094"/><text fill="#000000" font-family="sans-serif" font-size="14" lengthAdjust="spacing" textLength="76" x="256" y="48.1426">Sprachcode</text><text fill="#000000" font-family="sans-serif" font-size="14" lengthAdjust="spacing" textLength="50" x="382" y="48.1426">Code10</text><line style="stroke:#A80036;stroke-width:1.0;" x1="377" x2="377" y1="31.6094" y2="53.2188"/><line style="stroke:#A80036;stroke-width:1.0;" x1="251" x2="438" y1="53.2188" y2="53.2188"/><text fill="#000000" font-family="sans-serif" font-size="14" lengthAdjust="spacing" textLength="87" x="256" y="69.752">Beschreibung</text><text fill="#000000" font-family="sans-serif" font-size="14" lengthAdjust="spacing" textLength="51" x="382" y="69.752">Text100</text><line style="stroke:#A80036;stroke-width:1.0;" x1="377" x2="377" y1="53.2188" y2="74.8281"/><rect fill="none" height="64.8281" rx="5" ry="5" style="stroke:#A80036;stroke-width:1.5;" width="187" x="251" y="10"/><path d="M202,42.5 L215,42.5 C224.2776,42.5 233.9306,42.5 243.5945,42.5 " fill="none" style="stroke:#A80036;stroke-width:1.0;stroke-dasharray:3.0,3.0;"/><path d="M243.5945,45.5983 L245.9182,42.5 L243.5945,39.4017 L251.3401,42.5 L243.5945,45.5983 " fill="#A80036" style="stroke:#A80036;stroke-width:1.0;"/><ellipse cx="202" cy="42.5" fill="#A80036" rx="3" ry="3" style="stroke:#A80036;stroke-width:1.0;stroke-dasharray:3.0,3.0;"/><!--MD5=[575538bf70fa45d2c26cc7e9d205ea82]
@startjson
{
  "SachmerkmaleÜbersetzung": {
    "Sachmerkmalcode":"Code10",
    "Sprachcode":"Code10",
    "Beschreibung":"Text100"
  }
}
@endjson

PlantUML version 1.2021.7(Sun May 23 14:40:07 CEST 2021)
(GPL source distribution)
Java Runtime: OpenJDK Runtime Environment
JVM: Dynamic Code Evolution 64-Bit Server VM
Default Encoding: Cp1252
Language: de
Country: DE
--></g></svg>