<?xml version="1.0" encoding="UTF-8" standalone="no"?><svg xmlns="http://www.w3.org/2000/svg" xmlns:xlink="http://www.w3.org/1999/xlink" contentScriptType="application/ecmascript" contentStyleType="text/css" height="432px" preserveAspectRatio="none" style="width:744px;height:432px;background:#FFFFFF;" version="1.1" viewBox="0 0 744 432" width="744px" zoomAndPan="magnify"><defs/><g><rect fill="#FEFECE" height="21.6094" rx="5" ry="5" style="stroke:#FEFECE;stroke-width:1.5;" width="117" x="10" y="204.5"/><text fill="#000000" font-family="sans-serif" font-size="14" lengthAdjust="spacing" textLength="85" x="15" y="221.0332">Sachmerkmal</text><text fill="#000000" font-family="sans-serif" font-size="14" lengthAdjust="spacing" textLength="0" x="122" y="221.0332"/><line style="stroke:#A80036;stroke-width:1.0;" x1="105" x2="105" y1="204.5" y2="226.1094"/><rect fill="none" height="21.6094" rx="5" ry="5" style="stroke:#A80036;stroke-width:1.5;" width="117" x="10" y="204.5"/><rect fill="#FEFECE" height="410.5781" rx="5" ry="5" style="stroke:#FEFECE;stroke-width:1.5;" width="309" x="164" y="10"/><text fill="#000000" font-family="sans-serif" font-size="14" lengthAdjust="spacing" textLength="34" x="169" y="26.5332">Code</text><text fill="#000000" font-family="sans-serif" font-size="14" lengthAdjust="spacing" textLength="50" x="416" y="26.5332">Code10</text><line style="stroke:#A80036;stroke-width:1.0;" x1="411" x2="411" y1="10" y2="31.6094"/><line style="stroke:#A80036;stroke-width:1.0;" x1="164" x2="473" y1="31.6094" y2="31.6094"/><text fill="#000000" font-family="sans-serif" font-size="14" lengthAdjust="spacing" textLength="68" x="169" y="48.1426">Def.Klasse</text><text fill="#000000" font-family="sans-serif" font-size="14" lengthAdjust="spacing" textLength="0" x="420" y="48.1426"/><line style="stroke:#A80036;stroke-width:1.0;" x1="411" x2="411" y1="31.6094" y2="53.2188"/><line style="stroke:#A80036;stroke-width:1.0;" x1="164" x2="473" y1="53.2188" y2="53.2188"/><text fill="#000000" font-family="sans-serif" font-size="14" lengthAdjust="spacing" textLength="40" x="169" y="69.752">Länge</text><text fill="#000000" font-family="sans-serif" font-size="14" lengthAdjust="spacing" textLength="44" x="416" y="69.752">Integer</text><line style="stroke:#A80036;stroke-width:1.0;" x1="411" x2="411" y1="53.2188" y2="74.8281"/><line style="stroke:#A80036;stroke-width:1.0;" x1="164" x2="473" y1="74.8281" y2="74.8281"/><text fill="#000000" font-family="sans-serif" font-size="14" lengthAdjust="spacing" textLength="90" x="169" y="91.3613">Dezimalstellen</text><text fill="#000000" font-family="sans-serif" font-size="14" lengthAdjust="spacing" textLength="44" x="416" y="91.3613">Integer</text><line style="stroke:#A80036;stroke-width:1.0;" x1="411" x2="411" y1="74.8281" y2="96.4375"/><line style="stroke:#A80036;stroke-width:1.0;" x1="164" x2="473" y1="96.4375" y2="96.4375"/><text fill="#000000" font-family="sans-serif" font-size="14" lengthAdjust="spacing" textLength="87" x="169" y="112.9707">Beschreibung</text><text fill="#000000" font-family="sans-serif" font-size="14" lengthAdjust="spacing" textLength="51" x="416" y="112.9707">Text100</text><line style="stroke:#A80036;stroke-width:1.0;" x1="411" x2="411" y1="96.4375" y2="118.0469"/><line style="stroke:#A80036;stroke-width:1.0;" x1="164" x2="473" y1="118.0469" y2="118.0469"/><text fill="#000000" font-family="sans-serif" font-size="14" lengthAdjust="spacing" textLength="83" x="169" y="134.5801">Geändert am</text><text fill="#000000" font-family="sans-serif" font-size="14" lengthAdjust="spacing" textLength="30" x="416" y="134.5801">Date</text><line style="stroke:#A80036;stroke-width:1.0;" x1="411" x2="411" y1="118.0469" y2="139.6563"/><line style="stroke:#A80036;stroke-width:1.0;" x1="164" x2="473" y1="139.6563" y2="139.6563"/><text fill="#000000" font-family="sans-serif" font-size="14" lengthAdjust="spacing" textLength="87" x="169" y="156.1895">Geändert von</text><text fill="#000000" font-family="sans-serif" font-size="14" lengthAdjust="spacing" textLength="50" x="416" y="156.1895">Code50</text><line style="stroke:#A80036;stroke-width:1.0;" x1="411" x2="411" y1="139.6563" y2="161.2656"/><line style="stroke:#A80036;stroke-width:1.0;" x1="164" x2="473" y1="161.2656" y2="161.2656"/><text fill="#000000" font-family="sans-serif" font-size="14" lengthAdjust="spacing" textLength="153" x="169" y="177.7988">Ausprägung leer erlaubt</text><text fill="#000000" font-family="sans-serif" font-size="14" lengthAdjust="spacing" textLength="52" x="416" y="177.7988">Boolean</text><line style="stroke:#A80036;stroke-width:1.0;" x1="411" x2="411" y1="161.2656" y2="182.875"/><line style="stroke:#A80036;stroke-width:1.0;" x1="164" x2="473" y1="182.875" y2="182.875"/><text fill="#000000" font-family="sans-serif" font-size="14" lengthAdjust="spacing" textLength="57" x="169" y="199.4082">Datentyp</text><text fill="#000000" font-family="sans-serif" font-size="14" lengthAdjust="spacing" textLength="0" x="428" y="199.4082"/><line style="stroke:#A80036;stroke-width:1.0;" x1="411" x2="411" y1="182.875" y2="204.4844"/><line style="stroke:#A80036;stroke-width:1.0;" x1="164" x2="473" y1="204.4844" y2="204.4844"/><text fill="#000000" font-family="sans-serif" font-size="14" lengthAdjust="spacing" textLength="18" x="169" y="221.0176">Art</text><text fill="#000000" font-family="sans-serif" font-size="14" lengthAdjust="spacing" textLength="0" x="428" y="221.0176"/><line style="stroke:#A80036;stroke-width:1.0;" x1="411" x2="411" y1="204.4844" y2="226.0938"/><line style="stroke:#A80036;stroke-width:1.0;" x1="164" x2="473" y1="226.0938" y2="226.0938"/><text fill="#000000" font-family="sans-serif" font-size="14" lengthAdjust="spacing" textLength="84" x="169" y="242.627">Standardwert</text><text fill="#000000" font-family="sans-serif" font-size="14" lengthAdjust="spacing" textLength="50" x="416" y="242.627">Code20</text><line style="stroke:#A80036;stroke-width:1.0;" x1="411" x2="411" y1="226.0938" y2="247.7031"/><line style="stroke:#A80036;stroke-width:1.0;" x1="164" x2="473" y1="247.7031" y2="247.7031"/><text fill="#000000" font-family="sans-serif" font-size="14" lengthAdjust="spacing" textLength="104" x="169" y="264.2363">Ausprägung von</text><text fill="#000000" font-family="sans-serif" font-size="14" lengthAdjust="spacing" textLength="50" x="416" y="264.2363">Decimal</text><line style="stroke:#A80036;stroke-width:1.0;" x1="411" x2="411" y1="247.7031" y2="269.3125"/><line style="stroke:#A80036;stroke-width:1.0;" x1="164" x2="473" y1="269.3125" y2="269.3125"/><text fill="#000000" font-family="sans-serif" font-size="14" lengthAdjust="spacing" textLength="99" x="169" y="285.8457">Ausprägung bis</text><text fill="#000000" font-family="sans-serif" font-size="14" lengthAdjust="spacing" textLength="50" x="416" y="285.8457">Decimal</text><line style="stroke:#A80036;stroke-width:1.0;" x1="411" x2="411" y1="269.3125" y2="290.9219"/><line style="stroke:#A80036;stroke-width:1.0;" x1="164" x2="473" y1="290.9219" y2="290.9219"/><text fill="#000000" font-family="sans-serif" font-size="14" lengthAdjust="spacing" textLength="72" x="169" y="307.4551">Schrittweite</text><text fill="#000000" font-family="sans-serif" font-size="14" lengthAdjust="spacing" textLength="50" x="416" y="307.4551">Decimal</text><line style="stroke:#A80036;stroke-width:1.0;" x1="411" x2="411" y1="290.9219" y2="312.5313"/><line style="stroke:#A80036;stroke-width:1.0;" x1="164" x2="473" y1="312.5313" y2="312.5313"/><text fill="#000000" font-family="sans-serif" font-size="14" lengthAdjust="spacing" textLength="237" x="169" y="329.0645">Beschreibung Bereich-Ausprägungen</text><text fill="#000000" font-family="sans-serif" font-size="14" lengthAdjust="spacing" textLength="51" x="416" y="329.0645">Text100</text><line style="stroke:#A80036;stroke-width:1.0;" x1="411" x2="411" y1="312.5313" y2="334.1406"/><line style="stroke:#A80036;stroke-width:1.0;" x1="164" x2="473" y1="334.1406" y2="334.1406"/><text fill="#000000" font-family="sans-serif" font-size="14" lengthAdjust="spacing" textLength="124" x="169" y="350.6738">Dimensionsrelevant</text><text fill="#000000" font-family="sans-serif" font-size="14" lengthAdjust="spacing" textLength="52" x="416" y="350.6738">Boolean</text><line style="stroke:#A80036;stroke-width:1.0;" x1="411" x2="411" y1="334.1406" y2="355.75"/><line style="stroke:#A80036;stroke-width:1.0;" x1="164" x2="473" y1="355.75" y2="355.75"/><text fill="#000000" font-family="sans-serif" font-size="14" lengthAdjust="spacing" textLength="171" x="169" y="372.2832">Druck identisch zum Modell</text><text fill="#000000" font-family="sans-serif" font-size="14" lengthAdjust="spacing" textLength="52" x="416" y="372.2832">Boolean</text><line style="stroke:#A80036;stroke-width:1.0;" x1="411" x2="411" y1="355.75" y2="377.3594"/><line style="stroke:#A80036;stroke-width:1.0;" x1="164" x2="473" y1="377.3594" y2="377.3594"/><text fill="#000000" font-family="sans-serif" font-size="14" lengthAdjust="spacing" textLength="176" x="169" y="393.8926">Sachmerkmalsgruppencode</text><text fill="#000000" font-family="sans-serif" font-size="14" lengthAdjust="spacing" textLength="50" x="416" y="393.8926">Code10</text><line style="stroke:#A80036;stroke-width:1.0;" x1="411" x2="411" y1="377.3594" y2="398.9688"/><line style="stroke:#A80036;stroke-width:1.0;" x1="164" x2="473" y1="398.9688" y2="398.9688"/><text fill="#000000" font-family="sans-serif" font-size="14" lengthAdjust="spacing" textLength="192" x="169" y="415.502">Globale Ausprägungen aktual.</text><text fill="#000000" font-family="sans-serif" font-size="14" lengthAdjust="spacing" textLength="52" x="416" y="415.502">Boolean</text><line style="stroke:#A80036;stroke-width:1.0;" x1="411" x2="411" y1="398.9688" y2="420.5781"/><rect fill="none" height="410.5781" rx="5" ry="5" style="stroke:#A80036;stroke-width:1.5;" width="309" x="164" y="10"/><rect fill="#FEFECE" height="21.6094" rx="5" ry="5" style="stroke:#FEFECE;stroke-width:1.5;" width="74" x="510" y="168.5"/><text fill="#000000" font-family="sans-serif" font-size="14" lengthAdjust="spacing" textLength="42" x="515" y="185.0332">Option</text><text fill="#000000" font-family="sans-serif" font-size="14" lengthAdjust="spacing" textLength="0" x="579" y="185.0332"/><line style="stroke:#A80036;stroke-width:1.0;" x1="562" x2="562" y1="168.5" y2="190.1094"/><rect fill="none" height="21.6094" rx="5" ry="5" style="stroke:#A80036;stroke-width:1.5;" width="74" x="510" y="168.5"/><rect fill="#FEFECE" height="43.2188" rx="5" ry="5" style="stroke:#FEFECE;stroke-width:1.5;" width="111" x="621" y="153"/><text fill="#000000" font-family="sans-serif" font-size="14" lengthAdjust="spacing" textLength="66" x="626" y="169.5332">Numerisch</text><line style="stroke:#A80036;stroke-width:1.0;" x1="621" x2="732" y1="174.6094" y2="174.6094"/><text fill="#000000" font-family="sans-serif" font-size="14" lengthAdjust="spacing" textLength="101" x="626" y="191.1426">Alphanumerisch</text><rect fill="none" height="43.2188" rx="5" ry="5" style="stroke:#A80036;stroke-width:1.5;" width="111" x="621" y="153"/><rect fill="#FEFECE" height="21.6094" rx="5" ry="5" style="stroke:#FEFECE;stroke-width:1.5;" width="74" x="510" y="218.5"/><text fill="#000000" font-family="sans-serif" font-size="14" lengthAdjust="spacing" textLength="42" x="515" y="235.0332">Option</text><text fill="#000000" font-family="sans-serif" font-size="14" lengthAdjust="spacing" textLength="0" x="579" y="235.0332"/><line style="stroke:#A80036;stroke-width:1.0;" x1="562" x2="562" y1="218.5" y2="240.1094"/><rect fill="none" height="21.6094" rx="5" ry="5" style="stroke:#A80036;stroke-width:1.5;" width="74" x="510" y="218.5"/><rect fill="#FEFECE" height="43.2188" rx="5" ry="5" style="stroke:#FEFECE;stroke-width:1.5;" width="58" x="647.5" y="214"/><text fill="#000000" font-family="sans-serif" font-size="14" lengthAdjust="spacing" textLength="48" x="652.5" y="230.5332">Bereich</text><line style="stroke:#A80036;stroke-width:1.0;" x1="647.5" x2="705.5" y1="235.6094" y2="235.6094"/><text fill="#000000" font-family="sans-serif" font-size="14" lengthAdjust="spacing" textLength="30" x="652.5" y="252.1426">Wert</text><rect fill="none" height="43.2188" rx="5" ry="5" style="stroke:#A80036;stroke-width:1.5;" width="58" x="647.5" y="214"/><path d="M572,179.5 L585,179.5 C594.2388,179.5 603.9973,179.2399 613.5578,178.8383 " fill="none" style="stroke:#A80036;stroke-width:1.0;stroke-dasharray:3.0,3.0;"/><path d="M613.6978,181.8828 L615.8411,178.7333 L613.4177,175.7938 L621.1689,178.4882 L613.6978,181.8828 " fill="#A80036" style="stroke:#A80036;stroke-width:1.0;"/><ellipse cx="572" cy="179.5" fill="#A80036" rx="3" ry="3" style="stroke:#A80036;stroke-width:1.0;stroke-dasharray:3.0,3.0;"/><path d="M461,193.5 L474,193.5 C483.4072,193.5 493.3785,192.3496 502.8175,190.7084 " fill="none" style="stroke:#A80036;stroke-width:1.0;stroke-dasharray:3.0,3.0;"/><path d="M503.381,193.6823 L505.0479,190.2857 L502.2539,187.7345 L510.2523,189.2995 L503.381,193.6823 " fill="#A80036" style="stroke:#A80036;stroke-width:1.0;"/><ellipse cx="461" cy="193.5" fill="#A80036" rx="3" ry="3" style="stroke:#A80036;stroke-width:1.0;stroke-dasharray:3.0,3.0;"/><path d="M572,229.5 L585,229.5 C603.0965,229.5 623.1736,230.696 639.8553,232.0201 " fill="none" style="stroke:#A80036;stroke-width:1.0;stroke-dasharray:3.0,3.0;"/><path d="M639.5931,235.1773 L642.2232,232.2168 L640.1176,228.8629 L647.7482,232.6757 L639.5931,235.1773 " fill="#A80036" style="stroke:#A80036;stroke-width:1.0;"/><ellipse cx="572" cy="229.5" fill="#A80036" rx="3" ry="3" style="stroke:#A80036;stroke-width:1.0;stroke-dasharray:3.0,3.0;"/><path d="M461,214.5 L474,214.5 C483.4322,214.5 493.4141,215.7325 502.8556,217.491 " fill="none" style="stroke:#A80036;stroke-width:1.0;stroke-dasharray:3.0,3.0;"/><path d="M502.2518,220.4651 L505.0862,217.9438 L503.4594,214.5169 L510.2908,219.0005 L502.2518,220.4651 " fill="#A80036" style="stroke:#A80036;stroke-width:1.0;"/><ellipse cx="461" cy="214.5" fill="#A80036" rx="3" ry="3" style="stroke:#A80036;stroke-width:1.0;stroke-dasharray:3.0,3.0;"/><path d="M115,215.5 L128,215.5 C137.305,215.5 146.8664,215.5 156.5147,215.5 " fill="none" style="stroke:#A80036;stroke-width:1.0;stroke-dasharray:3.0,3.0;"/><path d="M156.5147,218.6012 L158.8406,215.5 L156.5147,212.3988 L164.2677,215.5 L156.5147,218.6012 " fill="#A80036" style="stroke:#A80036;stroke-width:1.0;"/><ellipse cx="115" cy="215.5" fill="#A80036" rx="3" ry="3" style="stroke:#A80036;stroke-width:1.0;stroke-dasharray:3.0,3.0;"/><!--MD5=[2f331e2411d227620e50ccf344a33f8e]
@startjson
{
  "Sachmerkmal": {
    "Code": "Code10",
    "Def.Klasse": "",
    "Länge": "Integer",
    "Dezimalstellen": "Integer",
    "Beschreibung": "Text100",
    "Geändert am": "Date",
    "Geändert von": "Code50",
    "Ausprägung leer erlaubt": "Boolean",
    "Datentyp": {
      "Option": [
        "Numerisch",
        "Alphanumerisch"
      ]
    },
    "Art": {
      "Option": [
        "Bereich",
        "Wert"
      ]
    },
    "Standardwert": "Code20",
    "Ausprägung von": "Decimal",
    "Ausprägung bis": "Decimal",
    "Schrittweite": "Decimal",
    "Beschreibung Bereich-Ausprägungen": "Text100",
    "Dimensionsrelevant": "Boolean",
    "Druck identisch zum Modell": "Boolean",
    "Sachmerkmalsgruppencode": "Code10",
    "Globale Ausprägungen aktual.": "Boolean"
  }
}
@endjson

PlantUML version 1.2021.7(Sun May 23 14:40:07 CEST 2021)
(GPL source distribution)
Java Runtime: OpenJDK Runtime Environment
JVM: Dynamic Code Evolution 64-Bit Server VM
Default Encoding: Cp1252
Language: de
Country: DE
--></g></svg>